<?xml version="1.0" standalone="no"?>
<!DOCTYPE svg PUBLIC "-//W3C//DTD SVG 20010904//EN"
 "http://www.w3.org/TR/2001/REC-SVG-20010904/DTD/svg10.dtd">
<svg version="1.0" xmlns="http://www.w3.org/2000/svg"
 width="512.000000pt" height="512.000000pt" viewBox="0 0 512.000000 512.000000"
 preserveAspectRatio="xMidYMid meet">

<g transform="translate(0.000000,512.000000) scale(0.100000,-0.100000)"
fill="#000000" stroke="none">
<path d="M2276 4679 c-379 -49 -750 -207 -1047 -447 -109 -88 -293 -283 -369
-390 -75 -107 -76 -108 -56 -115 11 -5 28 12 56 54 158 232 402 457 657 605
721 418 1642 344 2287 -185 73 -61 233 -219 282 -281 16 -19 62 -71 104 -115
42 -45 85 -103 99 -132 14 -29 28 -53 33 -53 13 0 11 4 -40 87 -327 532 -873
887 -1489 968 -124 16 -403 18 -517 4z"/>
<path d="M2365 4250 c-27 -4 -62 -13 -77 -20 -25 -12 -27 -16 -21 -56 6 -42 5
-43 -41 -71 l-46 -28 0 -70 0 -70 -55 -29 -55 -28 0 -635 c0 -564 -2 -633 -15
-619 -13 12 -15 59 -15 290 0 264 -1 276 -20 286 -18 10 -20 23 -22 162 l-3
152 -106 48 -107 47 -103 -57 -104 -58 -3 -154 c-2 -133 -5 -155 -20 -166 -13
-9 -17 -22 -14 -54 4 -44 22 -38 22 7 0 14 11 28 29 39 17 10 28 21 25 26 -3
4 2 5 10 2 9 -4 16 -18 16 -33 0 -22 -8 -30 -40 -45 -22 -9 -39 -20 -38 -24 1
-4 -2 -14 -6 -24 -4 -9 -6 -31 -3 -50 4 -31 4 -31 5 8 2 36 6 42 37 57 20 9
38 17 40 17 2 0 6 -21 8 -47 l3 -48 2 52 c1 29 7 53 14 55 6 2 12 11 14 20 1
11 -3 15 -12 11 -22 -8 -18 53 4 66 9 6 12 11 6 11 -5 0 -15 -5 -22 -12 -7 -7
-12 -8 -12 -2 0 15 22 34 40 34 12 0 15 -8 12 -35 -2 -19 1 -42 7 -49 8 -10 9
-16 1 -21 -5 -3 -9 -30 -8 -58 l2 -52 3 50 c3 27 10 56 16 64 9 11 9 15 0 18
-7 3 -13 20 -13 39 0 25 4 34 18 35 9 1 2 6 -16 12 -31 10 -33 13 -30 50 4 56
26 60 31 5 l4 -43 1 48 c2 42 -1 50 -19 54 -17 5 -20 12 -17 46 4 58 28 61 28
3 0 -43 13 -67 28 -51 4 4 1 10 -5 12 -8 3 -13 22 -13 46 0 34 4 44 22 52 33
15 37 39 4 31 -23 -6 -26 -3 -26 19 0 17 9 29 28 39 l27 14 -2 -92 c-2 -66 0
-87 8 -76 8 11 9 -48 5 -205 -3 -121 -6 -314 -6 -429 0 -115 -3 -206 -7 -203
-3 4 -6 35 -6 69 0 52 -1 55 -4 16 -2 -27 -9 -48 -14 -48 -6 0 -7 -5 -3 -12 5
-8 2 -9 -10 -5 -10 4 -20 7 -22 7 -2 0 -5 21 -6 48 l-1 47 -4 -43 c-5 -47 9
-72 38 -72 17 0 19 -8 19 -65 0 -36 -4 -65 -9 -65 -5 0 -16 -3 -25 -6 -14 -5
-16 4 -18 62 l-1 69 -6 -60 c-11 -107 -38 -118 -44 -17 l-3 67 -2 -67 c-1 -46
-6 -68 -14 -69 -7 0 -22 -3 -33 -5 -11 -3 -30 -5 -43 -6 -12 0 -25 -4 -28 -9
-9 -15 -22 -10 -27 9 -2 9 -3 5 -1 -10 2 -16 -1 -28 -6 -28 -6 0 -10 5 -10 10
0 6 -10 10 -22 9 l-23 0 23 -11 c18 -9 22 -19 22 -55 0 -36 -3 -43 -20 -43
-17 0 -20 7 -22 43 l-1 42 -4 -37 c-5 -41 -22 -52 -24 -15 l-1 22 -6 -22 c-5
-17 -11 -20 -22 -13 -12 8 -15 56 -17 302 -1 161 -2 295 -2 297 -1 2 -8 -2
-16 -9 -13 -10 -15 6 -17 127 -3 131 -4 137 -19 110 -14 -26 -14 -36 0 -98 18
-84 8 -116 -39 -125 -26 -6 -30 -11 -30 -39 0 -18 -7 -39 -16 -46 -14 -12 -16
-32 -11 -159 4 -80 3 -212 -1 -295 l-8 -150 -10 75 c-6 41 -12 60 -13 43 0
-18 -5 -33 -10 -33 -24 0 -41 14 -42 34 -1 16 -2 17 -6 4 -5 -21 -5 -21 -38
-6 l-25 11 -1 399 c-1 219 -2 402 -3 408 -1 9 -72 50 -87 50 -4 0 -10 -12 -12
-27 -2 -17 -4 -11 -4 15 0 72 -10 56 -16 -25 -7 -85 -1 -689 7 -702 3 -4 9
-68 15 -142 6 -74 13 -161 17 -194 4 -41 3 -57 -4 -50 -12 12 -39 265 -52 495
-11 183 -12 582 -1 675 l6 60 24 -35 c17 -26 22 -29 18 -12 -7 30 -1 28 18 -5
8 -16 15 -21 14 -13 -3 35 3 44 13 20 10 -24 10 -24 18 -5 8 18 9 18 9 -5 1
-16 4 -21 9 -13 6 9 13 7 27 -9 12 -15 20 -18 23 -10 8 25 22 10 22 -25 0 -35
1 -36 19 -19 18 17 19 16 26 -23 4 -23 11 -39 16 -35 5 3 9 -1 9 -9 0 -8 7
-17 15 -21 8 -3 15 -12 15 -20 0 -8 9 -18 20 -21 11 -3 20 -11 20 -16 0 -14 2
-23 10 -45 4 -11 4 -27 -1 -36 -7 -12 -5 -16 8 -14 26 4 27 36 3 123 -33 120
-84 190 -188 260 -50 34 -66 57 -24 34 12 -6 29 -11 38 -11 15 0 14 4 -7 28
-13 15 -17 21 -9 15 16 -15 34 -17 25 -4 -10 16 12 21 25 6 7 -8 16 -13 20
-10 5 3 11 1 14 -4 7 -10 -13 -9 -31 2 -6 4 -14 3 -18 -3 -6 -10 0 -12 40 -14
11 -1 26 -5 33 -9 21 -14 13 6 -15 37 -18 20 -12 17 16 -9 42 -37 43 -38 26
-10 l-18 30 24 -21 c28 -23 75 -54 85 -54 3 0 4 10 1 22 -6 20 -3 19 17 -6 13
-17 28 -26 34 -22 7 4 12 3 12 -1 0 -5 14 -17 30 -26 38 -23 38 -11 1 39 -71
99 -139 129 -276 122 -89 -5 -94 -4 -84 13 5 11 6 19 2 20 -4 0 3 4 15 10 13
5 26 18 29 29 4 14 17 22 46 27 37 6 39 7 21 20 -19 14 -19 14 1 11 11 -2 19
2 18 7 -1 6 13 11 30 11 17 1 33 6 35 13 2 6 8 9 13 5 5 -3 9 2 9 12 0 11 6
15 20 11 11 -3 23 0 27 5 4 7 1 8 -7 3 -9 -5 -11 -4 -6 4 4 6 16 9 27 6 11 -4
19 -2 19 5 0 7 6 10 14 7 7 -3 18 -1 24 5 8 8 16 8 27 -2 10 -8 15 -9 15 -2 0
22 -43 33 -124 33 -97 0 -183 -24 -249 -69 -58 -40 -71 -41 -27 -2 28 25 30
30 14 30 -18 1 -18 1 -1 14 18 14 18 14 0 19 -15 4 -15 5 3 6 12 0 27 7 33 15
10 11 8 17 -6 25 -16 9 -15 10 9 11 20 0 26 4 22 15 -4 9 0 15 9 15 8 0 18 7
21 16 3 8 2 12 -4 9 -6 -3 -10 -2 -10 2 0 5 14 14 30 20 17 6 30 18 30 26 0 9
10 17 23 20 20 3 21 4 3 12 -25 11 -107 -30 -169 -85 -62 -55 -106 -120 -127
-188 l-17 -56 -21 46 c-23 53 -82 122 -132 153 -83 52 -244 91 -274 65 -17
-13 -10 -43 7 -33 17 10 47 11 47 2 0 -5 7 -6 15 -2 9 3 15 2 14 -3 -4 -22 4
-31 46 -49 25 -11 45 -23 45 -27 0 -5 7 -8 15 -8 8 0 15 -7 15 -15 0 -9 12
-20 26 -25 14 -6 23 -14 19 -19 -3 -5 4 -12 15 -16 11 -4 18 -10 15 -15 -6
-10 14 -26 40 -33 15 -3 12 -5 -10 -7 -26 -1 -27 -3 -10 -10 l20 -9 -20 -1
c-19 -1 -19 -1 2 -13 12 -7 22 -16 23 -22 1 -5 11 -15 23 -22 41 -23 9 -13
-56 17 -90 43 -172 57 -239 41 -50 -11 -88 -34 -88 -53 0 -8 19 -5 59 10 10 4
12 1 6 -9 -6 -11 -5 -11 5 -2 7 6 19 9 26 6 8 -3 22 1 31 8 10 9 14 9 10 2 -5
-8 5 -14 30 -19 37 -7 36 -8 -33 -20 -116 -19 -241 -86 -205 -108 5 -4 11 -1
13 6 2 6 12 12 22 14 13 2 16 -2 11 -14 -5 -13 -3 -14 5 -6 7 7 24 9 43 5 50
-11 150 -2 164 14 4 4 2 5 -4 1 -19 -10 -16 -1 4 15 14 12 16 12 8 0 -6 -11
-4 -13 10 -7 16 6 16 4 4 -11 -12 -15 -12 -16 3 -10 10 3 20 2 24 -4 3 -6 13
-8 21 -5 8 3 11 1 8 -4 -6 -10 13 -15 47 -12 28 3 22 -5 -35 -41 -28 -18 -67
-51 -86 -72 -68 -78 -131 -264 -102 -299 15 -17 46 -22 36 -6 -12 19 -16 62
-5 55 5 -3 10 1 10 9 0 9 6 16 14 16 7 0 30 29 51 65 21 35 43 63 49 62 6 -1
12 8 14 21 2 16 8 22 18 18 8 -3 14 1 14 9 0 8 7 15 15 15 8 0 15 5 15 11 0 8
5 8 15 -1 13 -10 17 -7 30 21 l16 34 -6 -30 c-5 -28 -4 -29 10 -11 8 11 15 25
15 30 0 6 4 4 9 -3 8 -12 12 -10 22 12 17 37 29 34 23 -5 -32 -249 -58 -759
-47 -972 4 -104 3 -137 -5 -132 -7 4 -12 16 -12 27 0 10 -4 19 -10 19 -5 0
-10 14 -10 30 0 17 5 30 10 30 14 0 12 26 -3 38 -16 14 -22 102 -7 102 5 0 10
9 10 20 0 11 -4 20 -10 20 -15 0 -12 87 3 93 10 3 10 9 0 26 -7 11 -13 46 -13
77 0 46 3 55 15 50 10 -3 15 1 15 13 0 10 -7 21 -15 25 -10 3 -15 19 -15 47 0
32 3 40 14 36 17 -7 24 31 29 164 l3 85 -43 30 c-24 16 -43 35 -43 41 0 7 15
20 33 28 17 8 24 13 14 10 -10 -3 -25 -5 -32 -5 -16 0 -135 -112 -135 -127 0
-7 -12 -25 -26 -42 -14 -17 -25 -38 -24 -48 4 -36 -1 -43 -29 -43 -19 0 -35 8
-44 20 -14 20 -15 20 -21 -7 -4 -15 -9 -109 -13 -208 -6 -194 4 -322 38 -488
l20 -100 -37 -366 -37 -366 149 -209 149 -209 235 -75 c129 -41 533 -170 898
-287 l663 -213 332 115 c183 62 555 191 827 284 272 94 502 176 512 183 9 6
95 101 192 212 l175 201 -5 59 c-3 32 -19 191 -36 353 -31 289 -31 296 -15
375 53 259 62 524 27 771 l-21 140 -42 37 c-23 21 -49 38 -57 38 -8 0 -28 9
-45 20 -40 27 -45 25 -39 -12 3 -18 12 -94 19 -168 l14 -135 -4 110 c-3 83 -1
103 6 80 6 -16 13 -46 15 -65 2 -19 9 -59 14 -89 14 -78 12 -153 -4 -192 l-15
-34 -3 55 c-3 30 -5 -86 -6 -257 -1 -172 -6 -313 -11 -313 -4 0 -11 161 -14
358 -4 229 -13 430 -26 562 -11 113 -18 207 -16 208 2 2 11 -11 20 -29 13 -24
19 -29 26 -18 5 8 9 10 9 4 0 -5 4 -17 10 -25 7 -12 12 -11 31 5 l22 20 -7
-30 c-6 -28 -5 -29 9 -11 14 18 15 19 15 2 0 -12 5 -16 15 -12 11 4 15 -1 15
-17 0 -16 3 -18 9 -9 6 10 10 8 14 -8 3 -12 15 -24 26 -27 12 -3 21 -12 21
-19 0 -8 4 -14 8 -14 4 0 18 -20 30 -45 12 -26 29 -45 38 -45 10 0 14 -6 11
-14 -4 -10 -1 -13 7 -10 14 5 15 -23 2 -44 -12 -19 2 -28 22 -15 22 14 19 65
-8 154 -28 92 -94 180 -167 221 l-56 32 51 14 c29 8 52 18 52 22 0 4 11 6 25
5 28 -4 31 4 13 25 -7 8 -2 5 12 -6 31 -27 70 -36 87 -22 9 7 17 7 28 -2 8 -6
20 -8 27 -4 7 4 27 8 45 7 18 0 33 4 33 10 0 6 7 2 15 -9 12 -16 14 -17 15 -2
0 39 -116 94 -224 105 -33 3 -56 7 -51 9 6 1 23 5 38 8 16 4 25 11 21 17 -4 8
0 8 14 0 29 -15 65 -14 56 2 -6 9 -4 9 7 1 8 -6 26 -14 41 -18 22 -5 26 -3 22
9 -9 23 -58 45 -112 52 -56 6 -150 -15 -222 -52 -50 -25 -84 -35 -43 -12 12 7
23 17 24 22 1 6 9 15 18 22 14 11 14 12 1 13 -12 0 -11 3 3 11 9 6 15 14 12
19 -3 5 -1 11 5 15 6 4 8 10 5 15 -3 5 4 11 15 15 11 4 18 11 15 16 -4 5 5 13
19 19 14 5 26 16 26 25 0 8 7 15 15 15 8 0 15 4 15 9 0 5 11 12 25 15 14 4 25
11 25 16 0 6 9 10 20 10 18 0 25 10 21 32 0 4 7 4 16 1 10 -4 14 -2 9 5 -8 13
33 13 52 -1 9 -7 12 -4 12 12 0 31 -21 35 -103 22 -138 -22 -261 -106 -309
-211 l-22 -49 -22 60 c-12 33 -34 78 -50 100 -68 99 -233 200 -259 159 -3 -5
1 -10 10 -10 10 0 26 -11 37 -25 11 -14 26 -25 34 -25 8 0 13 -4 9 -9 -3 -5 2
-16 10 -24 8 -9 15 -20 15 -25 0 -6 7 -12 15 -16 8 -3 15 -9 14 -13 -4 -23 3
-33 24 -34 21 0 21 -1 2 -9 -19 -8 -19 -8 5 -18 l25 -11 -25 -1 c-23 -1 -24
-2 -7 -13 33 -21 60 -47 50 -47 -5 0 -27 13 -49 30 -59 45 -153 71 -258 71
-79 1 -91 -2 -110 -21 l-21 -22 24 12 c19 9 25 9 31 0 4 -7 12 -10 18 -6 6 3
13 2 16 -3 3 -5 16 -7 29 -4 18 4 19 3 7 -6 -13 -10 -13 -11 0 -12 8 -1 23 0
33 1 10 1 16 -4 15 -12 -2 -7 3 -12 10 -11 6 2 12 -2 12 -8 0 -6 7 -8 16 -5 8
3 13 2 10 -2 -2 -4 9 -14 26 -21 22 -10 27 -16 17 -22 -8 -5 -9 -9 -4 -10 6
-1 17 -2 25 -3 8 -2 23 -3 33 -4 9 -1 17 -8 17 -15 0 -8 11 -20 25 -27 14 -7
23 -16 20 -18 -3 -3 0 -11 7 -19 17 -21 7 -23 -55 -13 -125 20 -240 -27 -306
-126 -37 -56 -39 -69 -8 -52 12 7 25 11 30 10 4 -1 7 3 7 9 0 6 7 9 15 5 8 -3
15 -2 15 2 0 4 9 18 20 32 l19 25 -6 -24 c-5 -21 -4 -22 14 -12 11 5 23 7 27
4 3 -3 6 -2 6 4 0 6 12 19 28 29 21 13 24 14 14 2 -18 -22 9 -31 36 -13 10 8
22 11 26 8 6 -6 40 -12 81 -14 17 -1 16 -4 -10 -22 -100 -72 -165 -172 -190
-291 -13 -64 -6 -96 21 -96 11 0 12 5 6 18 -10 21 9 80 24 75 12 -4 74 88 74
108 0 5 5 7 10 4 13 -8 40 19 41 42 0 11 3 13 6 5 3 -9 12 -4 29 15 13 15 24
24 24 18 1 -5 7 4 15 20 13 30 13 30 15 5 1 -23 2 -23 10 -5 l9 20 1 -20 c1
-20 1 -20 15 -1 11 14 15 16 15 5 0 -8 11 3 24 24 23 37 24 37 29 15 14 -55
19 -473 8 -663 -18 -313 -35 -455 -53 -455 -6 0 -9 25 -7 68 5 126 0 172 -17
172 -9 0 -12 5 -8 13 4 6 3 8 -1 4 -15 -13 -14 -36 1 -30 11 4 14 -6 14 -46 0
-37 -4 -51 -14 -51 -8 0 -21 -3 -30 -6 -13 -5 -16 2 -16 40 0 30 4 46 13 46 8
0 8 3 -2 9 -21 14 -29 196 -23 599 l2 182 24 0 c13 0 29 6 35 14 6 8 21 16 31
19 18 5 20 0 20 -51 0 -57 -1 -57 -47 -89 -26 -18 -42 -33 -36 -33 7 0 15 5
18 10 11 19 27 10 22 -11 -3 -13 -2 -18 3 -13 4 5 10 20 12 33 3 27 28 42 28
16 0 -8 -7 -27 -16 -41 -15 -21 -15 -24 -1 -18 12 4 17 -3 20 -28 2 -18 4 35
5 117 1 119 -1 147 -11 135 -16 -20 -71 -50 -91 -50 -8 0 -27 -11 -42 -25 -15
-14 -30 -25 -34 -25 -3 0 -18 -17 -33 -37 -67 -93 -78 -116 -83 -172 -3 -39
-1 -51 6 -41 7 11 10 12 10 2 0 -7 -7 -20 -15 -28 -13 -14 -16 -14 -21 0 -4 9
-4 25 -1 36 3 11 0 20 -5 20 -7 0 -9 -16 -5 -40 3 -22 1 -42 -3 -45 -5 -3 -11
18 -13 47 l-3 53 -2 -56 c-2 -48 -5 -57 -23 -62 -20 -5 -20 -3 -15 106 7 132
14 174 34 205 9 14 15 47 15 90 0 43 2 52 4 25 2 -24 9 -43 15 -43 7 0 9 18 6
50 -3 28 -2 50 3 50 4 0 9 -14 11 -30 l3 -30 49 49 48 50 -33 -3 c-19 -2 -42
-6 -51 -10 -9 -4 -21 -5 -26 -2 -5 3 -22 -2 -37 -10 -16 -8 -37 -13 -47 -11
-10 3 -18 1 -18 -4 0 -6 -17 -17 -37 -25 -21 -8 -46 -19 -56 -25 -21 -12 -37
-4 -37 18 0 9 14 41 32 72 18 31 25 50 15 43 -13 -11 -22 -11 -54 0 -21 7 -44
19 -51 26 -8 7 -17 10 -22 7 -5 -3 -11 -2 -14 3 -3 5 -19 7 -36 4 -21 -3 -30
-10 -30 -23 0 -11 -7 -22 -16 -26 -13 -5 -13 -7 -2 -14 10 -7 10 -9 1 -9 -7 0
-13 -7 -13 -15 0 -8 -6 -15 -12 -15 -10 0 -9 -3 1 -9 10 -7 11 -9 0 -13 -16
-5 -27 -93 -28 -223 -1 -103 10 -144 29 -115 10 16 11 12 13 -55 0 -26 1 -27
4 -5 3 18 14 30 33 37 30 11 30 11 30 -23 0 -27 -5 -37 -22 -43 -48 -18 -66
-52 -65 -116 0 -33 2 -46 4 -29 3 23 12 34 38 46 l35 16 0 -27 c0 -38 16 -59
32 -43 9 9 9 12 -5 12 -25 0 -23 61 2 77 19 12 19 5 20 -233 2 -275 -4 -364
-25 -364 -10 0 -14 14 -14 45 0 33 4 45 15 45 8 0 15 5 15 10 0 11 -13 13 -23
3 -4 -3 -24 -8 -44 -10 -39 -4 -50 -9 -41 -18 3 -3 17 -1 31 4 32 12 37 7 37
-45 0 -39 -2 -43 -31 -49 -17 -4 -33 -5 -35 -2 -3 3 -6 47 -6 99 -1 59 -4 79
-7 53 -4 -27 -9 -36 -14 -27 -7 10 -12 10 -23 1 -11 -9 -14 -7 -14 15 0 16 -4
25 -10 21 -5 -3 -10 -24 -10 -46 0 -38 -1 -39 -27 -35 -16 2 -31 5 -35 5 -10
1 -19 93 -21 214 -2 86 0 104 10 91 8 -11 18 -14 30 -9 16 7 15 9 -7 14 -22 6
-25 13 -26 55 l-2 47 32 -7 c17 -3 39 -13 48 -21 16 -14 16 -14 5 11 -7 15
-26 30 -44 37 l-33 11 0 74 0 74 33 -13 c30 -13 32 -16 35 -73 1 -32 5 -66 8
-74 15 -38 26 50 31 256 6 220 6 222 -15 233 -21 11 -22 18 -22 160 l0 149
-109 61 -109 61 -109 -48 -108 -49 -3 -156 c-2 -122 -5 -157 -16 -157 -10 0
-14 -76 -19 -377 -4 -207 -7 -441 -7 -520 0 -89 -4 -143 -10 -143 -6 0 -10 34
-10 83 0 45 -2 174 -4 287 -3 113 -5 463 -5 777 l-1 573 -55 31 -55 31 0 68 0
69 -40 22 c-38 22 -40 25 -40 71 0 44 -2 49 -32 61 -18 8 -59 17 -90 20 l-58
7 0 -65 0 -65 -60 0 -60 0 0 65 c0 72 6 69 -85 55z m125 -180 c0 -13 -7 -20
-20 -20 -13 0 -20 7 -20 20 0 13 7 20 20 20 13 0 20 -7 20 -20z m80 0 c0 -13
-7 -20 -20 -20 -13 0 -20 7 -20 20 0 13 7 20 20 20 13 0 20 -7 20 -20z m-80
-60 c0 -13 -7 -20 -20 -20 -13 0 -20 7 -20 20 0 13 7 20 20 20 13 0 20 -7 20
-20z m80 0 c0 -13 -7 -20 -20 -20 -13 0 -20 7 -20 20 0 13 7 20 20 20 13 0 20
-7 20 -20z m-240 -17 c0 -20 -3 -24 -11 -16 -7 7 -9 19 -6 27 10 24 17 19 17
-11z m370 -4 c0 -11 -4 -17 -10 -14 -5 3 -10 13 -10 21 0 8 5 14 10 14 6 0 10
-9 10 -21z m-210 -39 c0 -13 -7 -20 -20 -20 -13 0 -20 7 -20 20 0 13 7 20 20
20 13 0 20 -7 20 -20z m80 0 c0 -13 -7 -20 -20 -20 -13 0 -20 7 -20 20 0 13 7
20 20 20 13 0 20 -7 20 -20z m-240 -21 c0 -11 -4 -17 -10 -14 -5 3 -10 13 -10
21 0 8 5 14 10 14 6 0 10 -9 10 -21z m370 0 c0 -11 -4 -17 -10 -14 -5 3 -10
13 -10 21 0 8 5 14 10 14 6 0 10 -9 10 -21z m-210 -34 c0 -18 -5 -25 -20 -25
-15 0 -20 7 -20 25 0 18 5 25 20 25 15 0 20 -7 20 -25z m75 0 c0 -11 -8 -21
-17 -23 -14 -3 -18 3 -18 23 0 20 4 26 18 23 9 -2 17 -12 17 -23z m-130 5 c7
-11 -9 -11 -45 0 -24 8 -24 8 7 9 17 1 35 -3 38 -9z m214 6 c-11 -9 -69 -15
-64 -6 3 6 20 10 37 10 17 0 29 -2 27 -4z m-409 -16 c0 -5 -17 -10 -38 -10
-20 0 -54 -9 -75 -20 -20 -11 -37 -16 -37 -11 0 5 19 18 43 30 44 22 107 28
107 11z m90 -17 c0 -20 -3 -24 -11 -16 -7 7 -9 19 -6 27 10 24 17 19 17 -11z
m370 0 c0 -20 -3 -24 -11 -16 -7 7 -9 19 -6 27 10 24 17 19 17 -11z m176 8
c23 -10 45 -24 48 -30 10 -16 2 -14 -36 9 -18 10 -50 20 -71 22 -21 1 -41 6
-43 10 -10 15 61 7 102 -11z m-450 -7 c17 -14 17 -15 1 -10 -10 3 -27 6 -38 6
-10 0 -19 5 -19 10 0 15 34 12 56 -6z m224 7 c0 -5 -16 -11 -35 -13 -36 -4
-49 7 -17 15 30 8 52 7 52 -2z m-405 -21 c4 -6 -9 -10 -32 -10 -21 0 -56 -9
-78 -20 -45 -23 -49 -24 -39 -9 19 32 135 62 149 39z m652 -21 c46 -29 36 -34
-18 -9 -24 11 -59 20 -76 20 -18 0 -33 5 -33 11 0 18 87 3 127 -22z m-467 11
c12 -8 11 -10 -5 -9 -11 1 -31 5 -45 9 -24 8 -24 8 5 9 17 0 37 -4 45 -9z m60
-15 c0 -18 -5 -25 -20 -25 -15 0 -20 7 -20 25 0 18 5 25 20 25 15 0 20 -7 20
-25z m75 0 c0 -11 -8 -21 -17 -23 -14 -3 -18 3 -18 23 0 20 4 26 18 23 9 -2
17 -12 17 -23z m65 15 c-14 -4 -32 -8 -40 -9 -13 -1 -13 0 0 9 8 5 26 9 40 9
l25 -1 -25 -8z m-332 -212 c-1 -117 -4 -193 -7 -168 l-5 45 -6 -50 c-4 -27 -7
45 -7 160 0 116 3 194 7 175 l7 -35 2 43 c0 23 3 42 6 42 3 0 4 -96 3 -212z
m-54 193 c3 -4 -15 -11 -39 -15 -46 -6 -111 -33 -102 -42 3 -3 19 2 36 10 33
18 116 22 106 6 -3 -5 -23 -10 -43 -10 -21 0 -54 -9 -73 -19 l-36 -20 0 24 c0
28 30 51 84 64 51 12 61 12 67 2z m86 -18 c0 -20 -3 -24 -11 -16 -7 7 -9 19
-6 27 10 24 17 19 17 -11z m105 5 c7 -8 4 -9 -8 -4 -10 3 -30 6 -43 6 -16 0
-23 4 -18 11 7 12 54 3 69 -13z m209 13 c3 -5 -9 -11 -27 -14 -40 -6 -47 0
-16 12 31 13 37 13 43 2z m52 -28 c-11 -11 -19 6 -11 24 8 17 8 17 12 0 3 -10
2 -21 -1 -24z m192 8 c10 -6 25 -18 33 -28 11 -13 6 -12 -22 5 -20 12 -57 25
-82 28 -26 4 -44 10 -42 14 5 9 87 -5 113 -19z m-375 -29 c-3 -26 -3 -26 6 -4
6 13 19 22 31 22 16 0 21 -5 18 -22 -2 -16 -9 -22 -20 -20 -10 2 -18 -2 -18
-8 0 -5 9 -10 20 -10 30 0 27 -40 -2 -41 l-23 0 23 -9 c12 -6 22 -18 22 -30 0
-14 -7 -20 -22 -21 l-23 0 23 -9 c12 -5 22 -16 22 -25 0 -9 -10 -20 -22 -25
l-23 -9 23 0 c18 -1 23 -6 20 -23 -4 -32 -40 -30 -50 2 -7 23 -7 22 -5 -6 2
-17 -2 -31 -7 -31 -6 0 -11 14 -11 31 0 25 -5 32 -22 34 -17 2 -23 10 -23 27
0 17 6 25 23 27 14 2 22 10 23 23 1 15 0 16 -3 3 -3 -10 -13 -18 -24 -18 -17
0 -19 8 -19 80 0 72 2 80 19 80 12 0 21 -9 24 -22 5 -21 5 -21 5 2 0 48 2 56
11 42 4 -7 6 -25 4 -40z m-87 20 c6 -4 11 -15 11 -25 0 -14 -6 -17 -21 -13
-12 3 -30 6 -41 7 -11 1 -4 5 15 9 31 6 32 8 8 9 -37 1 -47 21 -11 21 15 0 33
-4 39 -8z m194 -7 l-35 -13 34 -1 c40 -1 38 -6 -5 -14 -24 -5 -31 -2 -31 11 0
22 15 32 47 31 22 0 21 -2 -10 -14z m260 -15 c21 -11 41 -24 45 -30 9 -15 -1
-12 -37 10 -19 12 -51 20 -75 20 -24 0 -43 5 -43 10 0 17 69 11 110 -10z
m-550 -26 c0 -14 -4 -23 -10 -19 -5 3 -10 15 -10 26 0 10 5 19 10 19 6 0 10
-12 10 -26z m366 -11 c-11 -11 -19 6 -11 24 8 17 8 17 12 0 3 -10 2 -21 -1
-24z m-456 17 c0 -5 -15 -10 -33 -10 -18 0 -50 -9 -72 -20 -45 -23 -49 -24
-39 -9 18 30 144 64 144 39z m657 -21 c45 -28 37 -34 -12 -9 -22 11 -56 20
-77 20 -22 0 -38 5 -38 11 0 18 87 3 127 -22z m-471 5 c17 -14 17 -15 1 -10
-10 3 -27 6 -38 6 -10 0 -19 5 -19 10 0 15 34 12 56 -6z m224 7 c0 -5 -16 -11
-35 -13 -36 -4 -49 7 -17 15 30 8 52 7 52 -2z m-406 -20 c3 -4 -15 -11 -39
-15 -44 -6 -111 -33 -102 -42 2 -2 20 3 40 11 36 15 117 21 104 8 -4 -3 -24
-8 -45 -10 -20 -2 -53 -12 -73 -22 l-36 -17 0 23 c0 27 31 52 80 63 45 11 65
11 71 1z m649 -24 c20 -11 37 -25 37 -30 0 -5 -15 1 -34 12 -18 12 -54 24 -80
27 -25 4 -46 11 -46 16 0 15 80 -1 123 -25z m-463 13 c24 -15 7 -17 -35 -4
-38 12 -38 12 -10 13 17 0 37 -3 45 -9z m190 -3 l-35 -11 35 -6 c21 -5 26 -8
13 -9 -12 0 -28 -3 -36 -6 -8 -4 -14 1 -14 12 0 23 15 33 47 32 21 -1 20 -2
-10 -12z m-290 -17 c0 -11 -4 -20 -10 -20 -5 0 -10 9 -10 20 0 11 5 20 10 20
6 0 10 -9 10 -20z m370 0 c0 -11 -4 -20 -10 -20 -5 0 -10 9 -10 20 0 11 5 20
10 20 6 0 10 -9 10 -20z m-283 -1 c22 -8 24 -12 13 -19 -10 -7 -11 -10 -2 -10
6 0 12 -5 12 -10 0 -6 -12 -8 -27 -4 -53 11 -59 17 -28 24 l30 8 -28 1 c-16 0
-26 5 -22 11 8 13 17 13 52 -1z m456 -12 c18 -8 38 -21 46 -30 17 -21 7 -22
-24 -1 -14 9 -48 22 -77 29 -52 13 -52 13 -15 14 21 1 52 -5 70 -12z m-223
-17 c0 -5 -15 -11 -32 -11 l-33 -2 35 -7 c22 -5 27 -8 13 -9 -12 0 -28 -3 -36
-6 -16 -7 -20 26 -3 37 16 11 56 10 56 -2z m-400 -10 c0 -5 -17 -10 -38 -10
-21 0 -55 -9 -77 -20 -45 -23 -45 -23 -45 -11 0 5 19 18 43 30 43 22 117 29
117 11z m626 -9 c23 -10 45 -24 48 -30 10 -16 1 -14 -41 9 -21 11 -55 20 -75
20 -21 0 -38 5 -38 10 0 16 62 11 106 -9z m-546 -11 c0 -11 -4 -20 -10 -20 -5
0 -10 9 -10 20 0 11 5 20 10 20 6 0 10 -9 10 -20z m370 0 c0 -11 -4 -20 -10
-20 -5 0 -10 9 -10 20 0 11 5 20 10 20 6 0 10 -9 10 -20z m-270 -1 c11 -7 4
-8 -25 -3 -50 8 -58 14 -19 14 16 0 36 -5 44 -11z m-1190 -21 c0 -6 -6 -5 -15
2 -8 7 -15 14 -15 16 0 2 7 1 15 -2 8 -4 15 -11 15 -16z m1005 12 c4 -6 -7
-10 -27 -10 -35 0 -125 -36 -115 -46 3 -3 19 2 36 10 16 9 49 16 72 16 51 0
45 -12 -9 -17 -20 -2 -53 -12 -73 -22 l-36 -17 0 23 c0 27 14 41 64 59 46 16
80 18 88 4z m647 -22 c21 -12 38 -25 38 -30 0 -4 -15 1 -32 12 -18 11 -54 23
-80 26 -27 4 -48 11 -48 17 0 15 79 -1 122 -25z m-466 6 c17 -14 17 -15 1 -10
-10 3 -30 6 -43 6 -14 0 -22 4 -19 10 9 15 39 12 61 -6z m224 6 c0 -5 -9 -10
-19 -10 -11 0 -26 -3 -35 -6 -9 -3 -16 -1 -16 4 0 11 21 19 53 21 9 0 17 -3
17 -9z m-320 -40 c0 -11 -4 -20 -10 -20 -5 0 -10 9 -10 20 0 11 5 20 10 20 6
0 10 -9 10 -20z m100 10 c24 -15 7 -17 -35 -4 -38 12 -38 12 -10 13 17 0 37
-3 45 -9z m193 -1 c-39 -11 -44 -23 -8 -17 14 3 28 1 31 -3 3 -5 -4 -9 -15 -9
-10 0 -26 -2 -34 -5 -8 -4 -14 1 -14 12 0 23 15 33 47 32 22 -1 21 -2 -7 -10z
m77 -9 c0 -11 -4 -20 -10 -20 -5 0 -10 9 -10 20 0 11 5 20 10 20 6 0 10 -9 10
-20z m173 7 c36 -16 68 -47 47 -47 -10 0 -10 -3 0 -15 16 -20 12 -19 -35 5
-22 11 -56 20 -77 20 -21 0 -38 5 -38 10 0 15 56 12 97 -5 20 -8 38 -13 40
-11 8 7 -39 29 -92 41 l-50 13 38 1 c21 1 52 -5 70 -12z m-438 -29 c7 -8 2 -9
-15 -4 -14 3 -33 6 -43 6 -10 0 -15 5 -11 11 7 12 54 3 69 -13z m2002 16 c-3
-3 -12 -4 -19 -1 -8 3 -5 6 6 6 11 1 17 -2 13 -5z m-2192 -14 c-3 -5 -21 -10
-38 -10 -18 0 -51 -9 -74 -20 -45 -20 -58 -14 -21 9 44 27 147 44 133 21z
m245 -15 c0 -18 -5 -25 -20 -25 -15 0 -20 7 -20 25 0 18 5 25 20 25 15 0 20
-7 20 -25z m810 -31 c0 -20 -4 -25 -16 -20 -9 3 -18 6 -20 6 -2 0 -4 14 -4 30
0 28 2 30 20 20 12 -6 20 -21 20 -36z m-874 21 c18 -14 16 -14 -16 -9 -44 8
-63 24 -29 24 14 0 34 -7 45 -15z m220 6 c-7 -11 -66 -20 -66 -10 0 8 24 16
53 18 10 0 16 -3 13 -8z m-799 -33 c-3 -7 -5 -2 -5 12 0 14 2 19 5 13 2 -7 2
-19 0 -25z m398 22 c4 -6 -7 -10 -27 -10 -35 0 -125 -36 -115 -46 3 -3 19 2
36 10 16 9 49 16 73 15 l43 -1 -57 -13 c-31 -6 -68 -19 -81 -28 -24 -15 -24
-15 -24 8 0 29 14 43 64 61 46 16 80 18 88 4z m85 -10 c0 -11 -4 -20 -10 -20
-5 0 -10 9 -10 20 0 11 5 20 10 20 6 0 10 -9 10 -20z m370 0 c0 -11 -4 -20
-10 -20 -5 0 -10 9 -10 20 0 11 5 20 10 20 6 0 10 -9 10 -20z m187 -7 c20 -11
39 -25 41 -32 2 -7 -10 -3 -30 9 -18 11 -54 23 -80 26 -27 4 -48 11 -48 17 0
15 74 2 117 -20z m-1189 -10 c-4 -34 -28 -43 -28 -10 0 25 7 37 22 37 5 0 8
-12 6 -27z m1642 -9 c0 -13 -4 -24 -10 -24 -5 0 -10 14 -10 31 0 17 4 28 10
24 6 -3 10 -17 10 -31z m-1450 6 c0 -11 -2 -20 -4 -20 -2 0 -6 9 -9 20 -3 11
-1 20 4 20 5 0 9 -9 9 -20z m540 10 c12 -8 11 -10 -5 -9 -11 1 -31 5 -45 9
-24 8 -24 8 5 9 17 0 37 -4 45 -9z m200 0 c-36 -11 -52 -11 -45 0 3 6 21 10
38 9 31 -1 31 -1 7 -9z m510 -10 c0 -11 -4 -20 -9 -20 -7 0 -8 17 -2 38 4 10
11 -2 11 -18z m-1480 -13 c0 -17 -10 -28 -35 -40 l-35 -17 0 25 c0 16 9 29 28
39 37 21 42 20 42 -7z m830 4 c0 -10 -7 -22 -16 -25 -23 -9 -24 -8 -24 19 0
18 5 25 20 25 13 0 20 -7 20 -19z m78 -4 c2 -12 -3 -17 -17 -17 -15 0 -21 6
-21 21 0 25 33 22 38 -4z m822 2 c0 -5 6 -8 12 -6 7 1 14 -8 16 -20 4 -26 3
-27 -32 -13 -18 7 -26 17 -26 34 0 18 4 24 15 20 8 -4 15 -10 15 -15z m-1452
-13 c3 -11 -1 -17 -9 -14 -7 2 -13 12 -15 22 -3 23 20 15 24 -8z m497 2 c7 -8
4 -9 -8 -4 -10 3 -27 6 -38 6 -10 0 -19 5 -19 11 0 13 50 3 65 -13z m209 13
c3 -5 -9 -11 -27 -14 -40 -6 -47 0 -16 12 31 13 37 13 43 2z m229 -4 c36 -16
68 -47 47 -47 -10 0 -10 -3 0 -15 16 -20 12 -19 -35 5 -22 11 -56 20 -77 20
-21 0 -38 5 -38 10 0 15 56 12 97 -5 20 -8 38 -13 40 -11 8 8 -40 29 -92 42
l-50 12 38 1 c21 1 52 -5 70 -12z m223 -24 c-11 -11 -19 6 -11 24 8 17 8 17
12 0 3 -10 2 -21 -1 -24z m180 3 c21 -6 24 -12 24 -51 0 -25 -4 -45 -10 -45
-5 0 -10 4 -10 8 0 5 -7 9 -15 9 -25 0 -17 -24 10 -31 21 -5 25 -12 25 -46 0
-22 -4 -40 -10 -40 -5 0 -10 4 -10 8 0 5 -6 9 -13 9 -10 0 -13 -46 -15 -201
-2 -110 -5 -203 -8 -205 -2 -2 -4 124 -4 280 0 187 4 279 10 269 8 -12 10 -11
10 7 0 12 -4 25 -10 28 -5 3 -9 14 -9 23 1 16 2 16 6 0 2 -9 15 -19 29 -22z
m-1306 -8 c0 -12 -3 -18 -7 -14 -11 10 -12 36 -2 36 5 0 9 -10 9 -22z m360 2
c0 -11 -4 -20 -10 -20 -5 0 -10 9 -10 20 0 11 5 20 10 20 6 0 10 -9 10 -20z
m370 0 c0 -11 -4 -20 -10 -20 -5 0 -10 9 -10 20 0 11 5 20 10 20 6 0 10 -9 10
-20z m357 -2 c-3 -8 -6 -5 -6 6 -1 11 2 17 5 13 3 -3 4 -12 1 -19z m-812 2
c-3 -5 -21 -10 -38 -10 -18 0 -51 -9 -74 -20 -24 -10 -43 -15 -43 -11 0 16 85
51 123 51 23 0 36 -4 32 -10z m181 2 c6 -4 11 -15 11 -25 0 -14 -6 -16 -36
-11 -48 9 -52 14 -10 15 27 0 30 2 14 8 -11 5 -23 7 -27 5 -4 -3 -9 0 -13 6
-7 12 44 14 61 2z m194 -7 l-35 -13 34 -1 c40 -1 38 -6 -5 -14 -24 -5 -31 -2
-31 11 0 22 15 32 47 31 22 0 21 -2 -10 -14z m-803 -47 c-2 -13 -4 -5 -4 17
-1 22 1 32 4 23 2 -10 2 -28 0 -40z m30 -10 c-2 -13 -4 -3 -4 22 0 25 2 35 4
23 2 -13 2 -33 0 -45z m643 32 c0 -13 -7 -20 -20 -20 -13 0 -20 7 -20 20 0 13
7 20 20 20 13 0 20 -7 20 -20z m80 0 c0 -13 -7 -20 -20 -20 -13 0 -20 7 -20
20 0 13 7 20 20 20 13 0 20 -7 20 -20z m768 -29 c2 -32 0 -42 -10 -39 -7 3
-14 23 -16 47 -2 32 0 42 10 39 7 -3 14 -23 16 -47z m-1448 -2 c0 -24 -4 -38
-10 -34 -5 3 -10 22 -10 41 0 19 5 34 10 34 6 0 10 -18 10 -41z m354 32 c3 -4
-17 -11 -46 -14 -28 -4 -62 -14 -75 -22 -28 -19 -42 -15 -18 5 35 29 128 50
139 31z m645 -20 c19 -9 36 -22 38 -28 2 -6 -17 0 -43 13 -26 13 -62 24 -81
24 -18 0 -33 5 -33 11 0 16 75 3 119 -20z m251 -6 c0 -19 -4 -35 -10 -35 -11
0 -14 53 -3 63 11 12 13 8 13 -28z m-1479 -18 c3 -33 1 -43 -11 -43 -8 0 -25
-4 -37 -8 -21 -7 -23 -4 -23 28 0 28 5 38 28 50 38 21 40 21 43 -27z m1536 11
c-3 -7 -5 -2 -5 12 0 14 2 19 5 13 2 -7 2 -19 0 -25z m223 -30 c0 -37 0 -37
-30 -27 -26 10 -30 16 -30 49 l0 38 30 -11 c26 -10 30 -16 30 -49z m-1482 13
c3 -24 0 -32 -10 -29 -7 3 -14 19 -16 37 -3 24 0 32 10 29 7 -3 14 -19 16 -37z
m392 19 c0 -11 -4 -20 -10 -20 -5 0 -10 9 -10 20 0 11 5 20 10 20 6 0 10 -9
10 -20z m96 4 c17 -14 17 -15 1 -10 -10 3 -27 6 -38 6 -10 0 -19 5 -19 10 0
15 34 12 56 -6z m224 7 c0 -5 -16 -11 -35 -13 -36 -4 -49 7 -17 15 30 8 52 7
52 -2z m50 -11 c0 -11 -4 -20 -10 -20 -5 0 -10 9 -10 20 0 11 5 20 10 20 6 0
10 -9 10 -20z m398 -12 c-4 -42 -23 -47 -21 -6 2 41 1 38 14 38 6 0 9 -14 7
-32z m-854 13 c3 -5 -16 -12 -42 -16 -26 -3 -62 -15 -79 -25 -18 -11 -33 -15
-33 -11 0 14 47 41 87 50 52 12 61 12 67 2z m649 -24 c20 -11 37 -24 37 -29 0
-12 -6 -10 -42 12 -18 11 -52 22 -75 26 -24 3 -41 10 -38 14 8 13 76 0 118
-23z m-923 -8 c0 -17 -4 -28 -10 -24 -5 3 -10 17 -10 31 0 13 5 24 10 24 6 0
10 -14 10 -31z m520 0 c0 -12 -7 -19 -20 -19 -19 0 -28 28 -14 43 11 11 34 -5
34 -24z m570 1 c0 -16 -4 -30 -10 -30 -5 0 -8 13 -7 30 3 39 17 39 17 0z
m-630 10 c12 -8 12 -10 -5 -9 -11 0 -29 4 -40 9 -18 8 -18 9 5 9 14 0 32 -4
40 -9z m138 -7 c-5 -26 -38 -29 -38 -4 0 15 6 21 21 21 14 0 19 -5 17 -17z
m62 7 c-14 -4 -32 -8 -40 -9 -13 -1 -13 0 0 9 8 5 26 9 40 9 l25 -1 -25 -8z
m1440 -4 c0 -2 -8 -10 -17 -17 -16 -13 -17 -12 -4 4 13 16 21 21 21 13z m50
-1 c0 -2 -10 -9 -22 -15 -22 -11 -22 -10 -4 4 21 17 26 19 26 11z m-1875 -15
c-3 -5 -22 -10 -41 -10 -19 0 -53 -9 -74 -20 -22 -11 -40 -16 -40 -11 0 16 84
51 123 51 23 0 36 -4 32 -10z m190 -12 c7 -8 4 -9 -8 -4 -10 3 -27 6 -38 6
-10 0 -19 5 -19 11 0 13 50 3 65 -13z m209 13 c3 -5 -9 -11 -27 -14 -40 -6
-47 0 -16 12 31 13 37 13 43 2z m232 -10 c23 -10 45 -24 48 -30 10 -15 6 -14
-39 9 -22 11 -56 20 -77 20 -21 0 -38 5 -38 10 0 16 62 11 106 -9z m-546 -11
c0 -11 -4 -20 -10 -20 -5 0 -10 9 -10 20 0 11 5 20 10 20 6 0 10 -9 10 -20z
m370 0 c0 -11 -4 -20 -10 -20 -5 0 -10 9 -10 20 0 11 5 20 10 20 6 0 10 -9 10
-20z m-883 -37 c-3 -10 -5 -2 -5 17 0 19 2 27 5 18 2 -10 2 -26 0 -35z m1380
0 c-3 -10 -5 -2 -5 17 0 19 2 27 5 18 2 -10 2 -26 0 -35z m-1350 -10 c-3 -10
-5 -2 -5 17 0 19 2 27 5 18 2 -10 2 -26 0 -35z m397 38 c3 -4 -17 -11 -46 -14
-28 -4 -61 -13 -74 -22 -27 -18 -38 -19 -28 -4 18 30 135 62 148 40z m182 -6
c17 -13 17 -14 -13 -6 -17 5 -34 7 -37 3 -3 -3 -6 0 -6 6 0 17 32 15 56 -3z
m62 -13 c3 -17 -2 -22 -17 -22 -16 0 -21 6 -21 26 0 33 33 30 38 -4z m77 3 c0
-11 -8 -21 -17 -23 -14 -3 -18 3 -18 23 0 20 4 26 18 23 9 -2 17 -12 17 -23z
m55 10 l-35 -13 34 -1 c40 -1 38 -6 -5 -14 -24 -5 -31 -2 -31 11 0 22 15 32
47 31 22 0 21 -2 -10 -14z m276 -16 c50 -31 41 -40 -13 -13 -25 13 -61 24 -80
24 -18 0 -33 5 -33 11 0 18 87 3 126 -22z m284 1 c0 -16 -4 -30 -10 -30 -5 0
-10 14 -10 30 0 17 5 30 10 30 6 0 10 -13 10 -30z m158 -19 c2 -32 0 -42 -10
-39 -7 3 -14 23 -16 47 -2 32 0 42 10 39 7 -3 14 -23 16 -47z m-1689 -52 c-7
-4 -16 -6 -20 -3 -4 2 -10 0 -14 -6 -14 -22 -25 -8 -25 34 0 40 2 44 33 52 32
10 32 10 35 -30 2 -24 -2 -42 -9 -47z m241 55 c0 -21 -4 -33 -10 -29 -5 3 -10
19 -10 36 0 16 5 29 10 29 6 0 10 -16 10 -36z m1250 1 c0 -19 -4 -35 -10 -35
-5 0 -10 16 -10 35 0 19 5 35 10 35 6 0 10 -16 10 -35z m-1202 -19 c2 -28 0
-37 -10 -34 -7 3 -14 22 -16 42 -2 28 0 37 10 34 7 -3 14 -22 16 -42z m1160 7
c-4 -48 -28 -57 -28 -10 0 18 3 37 7 40 16 16 24 4 21 -30z m300 31 c18 -5 22
-13 22 -49 l0 -43 -30 11 c-26 10 -30 16 -30 49 0 40 2 41 38 32z m-1154 -13
c3 -4 -15 -11 -39 -15 -44 -6 -111 -33 -102 -42 2 -2 20 3 40 11 41 17 112 21
102 5 -3 -5 -22 -10 -41 -10 -19 0 -52 -9 -73 -20 l-38 -19 0 24 c0 28 30 51
84 64 51 12 61 12 67 2z m186 -1 c13 -9 13 -10 0 -9 -8 1 -26 5 -40 9 l-25 8
25 1 c14 0 32 -4 40 -9z m463 -23 c20 -11 37 -24 37 -29 0 -13 -10 -10 -37 12
-14 11 -47 23 -74 26 -27 4 -46 10 -44 15 8 12 76 -2 118 -24z m-923 -12 c0
-19 -4 -35 -10 -35 -5 0 -10 16 -10 35 0 19 5 35 10 35 6 0 10 -16 10 -35z
m360 15 c0 -11 -4 -20 -10 -20 -5 0 -10 9 -10 20 0 11 5 20 10 20 6 0 10 -9
10 -20z m370 0 c0 -11 -4 -20 -10 -20 -5 0 -10 9 -10 20 0 11 5 20 10 20 6 0
10 -9 10 -20z m360 -15 c0 -19 -4 -35 -10 -35 -5 0 -10 16 -10 35 0 19 5 35
10 35 6 0 10 -16 10 -35z m-625 3 c7 -8 4 -9 -8 -4 -10 3 -27 6 -38 6 -10 0
-19 5 -19 11 0 13 50 3 65 -13z m215 13 c0 -5 -16 -11 -35 -13 -36 -4 -49 7
-17 15 30 8 52 7 52 -2z m-162 -23 c-5 -34 -38 -37 -38 -4 0 20 5 26 21 26 15
0 20 -5 17 -22z m78 7 c3 -8 3 -19 0 -24 -10 -16 -36 -1 -36 20 0 22 28 26 36
4z m333 -25 c42 -29 35 -35 -14 -10 -22 11 -56 20 -77 20 -22 0 -38 5 -38 11
0 20 94 4 129 -21z m-469 10 c12 -8 12 -10 -5 -9 -11 0 -29 4 -40 9 -18 8 -18
9 5 9 14 0 32 -4 40 -9z m200 0 c-14 -4 -32 -8 -40 -9 -13 -1 -13 0 0 9 8 5
26 9 40 9 l25 -1 -25 -8z m-1853 -32 c-3 -7 -5 -2 -5 12 0 14 2 19 5 13 2 -7
2 -19 0 -25z m2503 -3 c0 -19 -4 -35 -10 -35 -5 0 -10 16 -10 35 0 19 5 35 10
35 6 0 10 -16 10 -35z m1127 13 c-3 -8 -6 -5 -6 6 -1 11 2 17 5 13 3 -3 4 -12
1 -19z m-2580 -35 c-3 -10 -5 -2 -5 17 0 19 2 27 5 18 2 -10 2 -26 0 -35z
m413 37 c0 -5 -15 -10 -33 -10 -18 0 -50 -9 -72 -20 -45 -23 -49 -24 -39 -9
18 30 144 64 144 39z m90 -11 c0 -11 -4 -17 -10 -14 -5 3 -10 13 -10 21 0 8 5
14 10 14 6 0 10 -9 10 -21z m370 0 c0 -11 -4 -17 -10 -14 -5 3 -10 13 -10 21
0 8 5 14 10 14 6 0 10 -9 10 -21z m197 -10 c46 -29 36 -34 -18 -9 -24 11 -59
20 -76 20 -18 0 -33 5 -33 11 0 18 87 3 127 -22z m-1040 -26 c-4 -17 -4 -17
-12 0 -4 9 -4 25 0 35 8 16 8 16 12 0 3 -10 3 -26 0 -35z m578 37 c4 -6 -6 -7
-27 -3 -44 8 -48 13 -10 13 17 0 34 -4 37 -10z m214 6 c-11 -9 -69 -15 -64 -6
3 6 20 10 37 10 17 0 29 -2 27 -4z m520 -28 c-1 -31 -1 -31 -8 -8 -5 14 -6 28
-4 33 9 15 13 6 12 -25z m141 -4 c0 -21 -4 -33 -10 -29 -5 3 -10 19 -10 36 0
16 5 29 10 29 6 0 10 -16 10 -36z m610 -3 c0 -22 -4 -43 -10 -46 -6 -4 -10 12
-10 39 0 25 5 46 10 46 6 0 10 -18 10 -39z m-1430 9 c0 -13 -7 -20 -20 -20
-13 0 -20 7 -20 20 0 13 7 20 20 20 13 0 20 -7 20 -20z m78 -3 c2 -12 -3 -17
-17 -17 -15 0 -21 6 -21 21 0 25 33 22 38 -4z m-324 4 c3 -4 -15 -11 -39 -15
-44 -6 -111 -33 -102 -42 2 -2 20 3 40 11 38 16 97 20 97 8 0 -5 -17 -9 -37
-11 -21 -1 -54 -11 -74 -21 l-36 -19 0 24 c0 29 14 42 69 59 51 16 75 18 82 6z
m182 -7 c17 -14 17 -15 1 -10 -10 3 -27 6 -38 6 -10 0 -19 5 -19 10 0 15 34
12 56 -6z m224 6 c0 -5 -15 -11 -32 -11 l-33 -2 35 -7 c22 -5 27 -8 13 -9 -12
0 -28 -3 -36 -6 -16 -7 -20 26 -3 37 16 11 56 10 56 -2z m243 -23 c50 -28 48
-42 -3 -16 -22 12 -58 23 -80 26 -22 3 -40 10 -40 15 0 15 80 -1 123 -25z
m465 -5 c3 -25 0 -31 -12 -26 -10 4 -16 18 -16 36 0 40 24 32 28 -10z m-1448
3 c0 -14 -4 -25 -10 -25 -5 0 -10 11 -10 25 0 14 5 25 10 25 6 0 10 -11 10
-25z m1218 3 c-4 -29 -25 -35 -22 -6 3 29 2 28 15 28 6 0 9 -10 7 -22z m-798
-15 c0 -20 -3 -24 -11 -16 -7 7 -9 19 -6 27 10 24 17 19 17 -11z m1118 -37 c3
-25 3 -25 -30 -12 -26 11 -34 21 -36 47 l-3 32 33 -21 c20 -13 34 -31 36 -46z
m-1490 25 c3 -15 -1 -22 -9 -19 -7 2 -13 14 -14 26 -2 29 19 22 23 -7z m472
19 c13 -9 13 -10 0 -9 -8 1 -26 5 -40 9 l-25 8 25 1 c14 0 32 -4 40 -9z m270
-11 c0 -11 -4 -17 -10 -14 -5 3 -10 13 -10 21 0 8 5 14 10 14 6 0 10 -9 10
-21z m376 -14 c-3 -8 -10 -15 -16 -15 -14 0 -12 37 3 43 15 5 21 -8 13 -28z
m-203 12 c18 -8 38 -21 46 -30 17 -21 7 -22 -24 -1 -14 9 -48 22 -77 29 -52
13 -52 13 -15 14 21 1 52 -5 70 -12z m-873 -28 c0 -11 -4 -17 -10 -14 -5 3
-10 15 -10 26 0 11 5 17 10 14 6 -3 10 -15 10 -26z m435 9 c7 -8 4 -9 -8 -4
-10 3 -27 6 -38 6 -10 0 -19 5 -19 11 0 13 50 3 65 -13z m55 2 c0 -13 -7 -20
-20 -20 -13 0 -20 7 -20 20 0 13 7 20 20 20 13 0 20 -7 20 -20z m80 0 c0 -13
-7 -20 -20 -20 -13 0 -20 7 -20 20 0 13 7 20 20 20 13 0 20 -7 20 -20z m80 11
c0 -5 -16 -11 -35 -13 -36 -4 -49 7 -17 15 30 8 52 7 52 -2z m377 -33 c-3 -7
-5 -2 -5 12 0 14 2 19 5 13 2 -7 2 -19 0 -25z m253 -23 c0 -30 -4 -55 -10 -55
-5 0 -10 25 -10 55 0 30 5 55 10 55 6 0 10 -25 10 -55z m396 28 c-10 -10 -19
5 -10 18 6 11 8 11 12 0 2 -7 1 -15 -2 -18z m38 11 c3 -8 2 -12 -4 -9 -6 3
-10 10 -10 16 0 14 7 11 14 -7z m-1887 -61 c-2 -16 -4 -5 -4 22 0 28 2 40 4
28 2 -13 2 -35 0 -50z m413 57 c0 -5 -15 -10 -33 -10 -18 0 -50 -9 -72 -20
-40 -20 -65 -18 -30 3 55 32 135 48 135 27z m636 -9 c23 -10 45 -24 48 -30 10
-15 5 -14 -45 9 -24 11 -59 20 -76 20 -18 0 -33 5 -33 10 0 16 62 11 106 -9z
m434 -42 c0 -27 -4 -49 -10 -49 -5 0 -10 25 -10 56 0 34 4 53 10 49 6 -3 10
-28 10 -56z m-1650 41 c-20 -13 -33 -13 -25 0 3 6 14 10 23 10 15 0 15 -2 2
-10z m197 -57 c-2 -16 -4 -5 -4 22 0 28 2 40 4 28 2 -13 2 -35 0 -50z m568 57
l20 -9 -20 0 c-11 0 -29 4 -40 9 l-20 9 20 0 c11 0 29 -4 40 -9z m205 0 c-14
-4 -32 -8 -40 -9 -13 -1 -13 0 0 9 8 5 26 9 40 9 l25 -1 -25 -8z m537 -57 c-2
-16 -4 -5 -4 22 0 28 2 40 4 28 2 -13 2 -35 0 -50z m478 57 c-3 -5 -10 -10
-16 -10 -5 0 -9 5 -9 10 0 6 7 10 16 10 8 0 12 -4 9 -10z m-1315 -21 c0 -11
-4 -17 -10 -14 -5 3 -10 13 -10 21 0 8 5 14 10 14 6 0 10 -9 10 -21z m370 0
c0 -11 -4 -17 -10 -14 -5 3 -10 13 -10 21 0 8 5 14 10 14 6 0 10 -9 10 -21z
m660 -35 c0 -32 -4 -44 -15 -44 -11 0 -15 12 -15 50 0 40 3 48 15 44 10 -4 15
-20 15 -50z m245 46 c-3 -5 -10 -10 -16 -10 -5 0 -9 5 -9 10 0 6 7 10 16 10 8
0 12 -4 9 -10z m-2618 -67 c-2 -16 -4 -5 -4 22 0 28 2 40 4 28 2 -13 2 -35 0
-50z m623 57 c-8 -5 -19 -10 -25 -10 -5 0 -3 5 5 10 8 5 20 10 25 10 6 0 3 -5
-5 -10z m300 -36 c0 -19 -4 -34 -10 -34 -5 0 -10 18 -10 41 0 24 4 38 10 34 6
-3 10 -22 10 -41z m335 36 c4 -6 -7 -10 -27 -10 -35 0 -125 -36 -115 -46 3 -3
19 2 37 11 17 9 47 15 68 13 37 -3 37 -3 -16 -16 -29 -6 -63 -19 -76 -27 -23
-15 -23 -15 -23 10 0 29 29 53 80 65 46 11 65 11 72 0z m648 -23 c20 -11 37
-24 37 -29 0 -4 -15 1 -32 12 -18 11 -54 23 -80 26 -27 4 -48 11 -48 16 0 15
80 -1 123 -25z m229 -4 c-5 -59 -10 -63 -11 -10 -1 26 3 47 7 47 4 0 6 -17 4
-37z m448 27 c0 -5 -5 -10 -11 -10 -5 0 -7 5 -4 10 3 6 8 10 11 10 2 0 4 -4 4
-10z m106 -27 c-11 -11 -19 6 -11 24 8 17 8 17 12 0 3 -10 2 -21 -1 -24z m64
17 c6 -11 8 -20 6 -20 -3 0 -10 9 -16 20 -6 11 -8 20 -6 20 3 0 10 -9 16 -20z
m747 -2 c-3 -8 -6 -5 -6 6 -1 11 2 17 5 13 3 -3 4 -12 1 -19z m-2052 2 c7 -11
-9 -11 -45 0 -24 8 -24 8 7 9 17 1 35 -3 38 -9z m55 -10 c0 -13 -7 -20 -20
-20 -13 0 -20 7 -20 20 0 13 7 20 20 20 13 0 20 -7 20 -20z m80 0 c0 -13 -7
-20 -20 -20 -13 0 -20 7 -20 20 0 13 7 20 20 20 13 0 20 -7 20 -20z m79 16
c-11 -9 -69 -15 -64 -6 3 6 20 10 37 10 17 0 29 -2 27 -4z m801 -68 c0 -41 -4
-43 -44 -28 -23 8 -26 15 -26 55 l0 45 35 -18 c30 -15 35 -22 35 -54z m192 40
c-15 -15 -26 -4 -18 18 5 13 9 15 18 6 9 -9 9 -15 0 -24z m-2862 -3 c0 -8 -4
-17 -10 -20 -6 -4 -10 5 -10 20 0 15 4 24 10 20 6 -3 10 -12 10 -20z m177 -37
c-2 -13 -4 -3 -4 22 0 25 2 35 4 23 2 -13 2 -33 0 -45z m1003 16 c0 -19 -4
-34 -10 -34 -5 0 -10 18 -10 41 0 24 4 38 10 34 6 -3 10 -22 10 -41z m1120 6
c0 -29 -4 -40 -15 -40 -10 0 -15 10 -15 34 0 29 6 38 28 45 1 1 2 -17 2 -39z
m528 24 c-2 -9 -17 -22 -35 -29 -31 -13 -32 -13 -24 8 5 12 13 22 19 22 6 0
14 3 18 8 13 12 26 8 22 -9z m-1182 -10 c17 -14 17 -15 1 -10 -10 3 -27 6 -38
6 -10 0 -19 5 -19 10 0 15 34 12 56 -6z m224 7 c0 -5 -16 -11 -35 -13 -36 -4
-49 7 -17 15 30 8 52 7 52 -2z m1237 -23 c-3 -7 -5 -2 -5 12 0 14 2 19 5 13 2
-7 2 -19 0 -25z m-3163 -12 c-3 -15 -8 -25 -11 -23 -2 3 -1 17 3 31 3 15 8 25
11 23 2 -3 1 -17 -3 -31z m96 3 c0 -12 -5 -16 -15 -13 -8 4 -15 15 -15 25 0
12 5 16 15 13 8 -4 15 -15 15 -25z m1175 -10 c0 -16 -3 -29 -7 -29 -5 0 -8 17
-8 37 0 20 3 33 8 29 4 -4 7 -21 7 -37z m335 14 c0 -20 -3 -24 -11 -16 -7 7
-9 19 -6 27 10 24 17 19 17 -11z m370 0 c0 -20 -3 -24 -11 -16 -7 7 -9 19 -6
27 10 24 17 19 17 -11z m173 14 c36 -16 68 -47 47 -47 -10 0 -10 -3 0 -15 16
-20 12 -19 -35 5 -22 11 -56 20 -77 20 -21 0 -38 5 -38 10 0 14 48 12 95 -5
21 -8 41 -12 43 -10 7 7 -42 28 -93 40 l-50 13 38 1 c21 1 52 -5 70 -12z m154
-39 c-2 -13 -4 -5 -4 17 -1 22 1 32 4 23 2 -10 2 -28 0 -40z m1470 30 c-3 -8
-6 -5 -6 6 -1 11 2 17 5 13 3 -3 4 -12 1 -19z m-817 -8 c0 -11 -4 -20 -10 -20
-5 0 -10 9 -10 20 0 11 5 20 10 20 6 0 10 -9 10 -20z m90 0 c6 -11 8 -20 6
-20 -3 0 -10 9 -16 20 -6 11 -8 20 -6 20 3 0 10 -9 16 -20z m-1340 0 c12 -8
12 -10 -5 -9 -11 0 -29 4 -40 9 -18 8 -18 9 5 9 14 0 32 -4 40 -9z m55 -15 c0
-11 -8 -21 -17 -23 -14 -3 -18 3 -18 23 0 20 4 26 18 23 9 -2 17 -12 17 -23z
m80 0 c0 -11 -8 -21 -17 -23 -14 -3 -18 3 -18 23 0 20 4 26 18 23 9 -2 17 -12
17 -23z m65 15 c-36 -11 -52 -11 -45 0 3 6 21 10 38 9 31 -1 31 -1 7 -9z
m1018 -7 c-5 -25 -28 -28 -28 -4 0 12 6 21 16 21 9 0 14 -7 12 -17z m-1408 -3
c0 -5 -15 -10 -32 -10 -18 0 -53 -10 -78 -21 -40 -18 -43 -18 -27 -2 32 33
137 58 137 33z m1370 -9 c0 -18 -45 -39 -57 -27 -9 9 7 37 17 31 5 -3 10 -1
10 4 0 6 7 11 15 11 8 0 15 -9 15 -19z m-1175 -14 c7 -7 4 -8 -8 -3 -10 3 -27
6 -38 6 -10 0 -19 5 -19 10 0 12 50 2 65 -13z m209 14 c3 -5 -10 -11 -29 -13
-36 -4 -36 6 0 15 11 3 21 5 22 6 1 0 4 -3 7 -8z m1863 -23 c-3 -8 -6 -5 -6 6
-1 11 2 17 5 13 3 -3 4 -12 1 -19z m-3727 -13 c0 -14 -4 -25 -10 -25 -5 0 -10
11 -10 25 0 14 5 25 10 25 6 0 10 -11 10 -25z m1460 15 c0 -5 -12 -10 -27 -10
-31 0 -119 -37 -110 -46 3 -3 19 2 36 10 16 9 47 16 68 15 37 -1 37 -1 -15
-14 -29 -7 -63 -20 -76 -28 -22 -15 -23 -15 -23 8 0 29 14 43 64 61 46 16 83
18 83 4z m86 -27 c-11 -11 -19 6 -11 24 8 17 8 17 12 0 3 -10 2 -21 -1 -24z
m370 0 c-11 -11 -19 6 -11 24 8 17 8 17 12 0 3 -10 2 -21 -1 -24z m195 7 c21
-11 39 -25 39 -30 0 -5 -15 -1 -32 10 -18 11 -54 23 -80 26 -27 4 -48 11 -48
17 0 14 75 0 121 -23z m389 -20 c0 -27 -4 -50 -10 -50 -5 0 -10 23 -10 50 0
28 5 50 10 50 6 0 10 -22 10 -50z m400 25 c0 -14 -4 -25 -10 -25 -5 0 -10 11
-10 25 0 14 5 25 10 25 6 0 10 -11 10 -25z m-2862 -23 c3 -25 0 -31 -12 -26
-10 4 -16 18 -16 36 0 40 24 32 28 -10z m1009 -24 c-2 -13 -4 -3 -4 22 0 25 2
35 4 23 2 -13 2 -33 0 -45z m597 56 c28 -11 17 -23 -13 -14 -16 4 -32 6 -35 2
-3 -3 -6 0 -6 6 0 13 28 16 54 6z m221 -4 c-4 -6 -9 -9 -13 -6 -4 2 -16 0 -27
-5 -16 -6 -13 -8 14 -8 40 -1 38 -6 -5 -14 -24 -5 -31 -2 -31 11 0 9 5 20 11
24 17 12 58 9 51 -2z m665 -40 c0 -27 -4 -50 -10 -50 -5 0 -10 23 -10 50 0 28
5 50 10 50 6 0 10 -22 10 -50z m338 28 c-5 -32 -28 -35 -28 -4 0 17 5 26 16
26 10 0 14 -7 12 -22z m-1791 -50 c-2 -13 -4 -3 -4 22 0 25 2 35 4 23 2 -13 2
-33 0 -45z m631 40 c-5 -34 -38 -37 -38 -4 0 20 5 26 21 26 15 0 20 -5 17 -22z
m77 -3 c0 -11 -8 -21 -17 -23 -14 -3 -18 3 -18 23 0 20 4 26 18 23 9 -2 17
-12 17 -23z m602 -37 c-2 -13 -4 -3 -4 22 0 25 2 35 4 23 2 -13 2 -33 0 -45z
m191 9 c2 -37 0 -47 -12 -47 -12 0 -16 12 -16 51 0 66 24 62 28 -4z m252 29
c0 -40 -55 -51 -62 -12 -4 18 -1 22 13 19 9 -3 20 0 23 6 12 19 26 12 26 -13z
m-1708 -30 c-6 -48 -12 -46 -12 5 0 22 4 38 8 35 4 -3 6 -21 4 -40z m1215 -18
c-2 -13 -4 -3 -4 22 0 25 2 35 4 23 2 -13 2 -33 0 -45z m-2130 -25 c-2 -16 -4
-3 -4 27 0 30 2 43 4 28 2 -16 2 -40 0 -55z m1443 67 c13 -9 13 -10 0 -9 -8 1
-26 5 -40 9 l-25 8 25 1 c14 0 32 -4 40 -9z m443 -3 c36 -16 68 -47 47 -47
-10 0 -10 -3 0 -15 16 -20 12 -19 -35 5 -22 11 -56 20 -77 20 -21 0 -38 5 -38
10 0 15 56 12 97 -5 20 -8 38 -13 40 -11 8 8 -40 29 -92 42 l-50 12 38 1 c21
1 52 -5 70 -12z m551 3 c23 -8 26 -15 26 -55 0 -48 -4 -51 -44 -35 -23 8 -26
15 -26 55 0 48 4 51 44 35z m1093 -27 c-3 -10 -5 -4 -5 12 0 17 2 24 5 18 2
-7 2 -21 0 -30z m-2557 -14 c0 -24 -4 -38 -10 -34 -5 3 -10 22 -10 41 0 19 5
34 10 34 6 0 10 -18 10 -41z m1120 37 c0 -2 -7 -6 -15 -10 -8 -3 -15 -1 -15 4
0 6 7 10 15 10 8 0 15 -2 15 -4z m-1093 -43 c-3 -10 -5 -4 -5 12 0 17 2 24 5
18 2 -7 2 -21 0 -30z m339 0 c-11 -11 -19 6 -11 24 8 17 8 17 12 0 3 -10 2
-21 -1 -24z m100 21 c17 -14 17 -15 1 -10 -10 3 -27 6 -38 6 -10 0 -19 5 -19
10 0 15 34 12 56 -6z m224 7 c0 -5 -16 -11 -35 -13 -36 -4 -49 7 -17 15 30 8
52 7 52 -2z m46 -28 c-11 -11 -19 6 -11 24 8 17 8 17 12 0 3 -10 2 -21 -1 -24z
m331 -25 c-2 -13 -4 -3 -4 22 0 25 2 35 4 23 2 -13 2 -33 0 -45z m653 26 c0
-21 -4 -33 -10 -29 -5 3 -10 19 -10 36 0 16 5 29 10 29 6 0 10 -16 10 -36z
m-1440 16 c0 -5 -16 -10 -35 -10 -20 0 -54 -9 -75 -20 -22 -11 -40 -16 -40
-11 0 5 19 18 43 30 44 22 107 28 107 11z m1408 -17 c-4 -34 -28 -43 -28 -10
0 25 7 37 22 37 5 0 8 -12 6 -27z m-2868 -24 c0 -16 -4 -29 -10 -29 -5 0 -10
16 -10 36 0 21 4 33 10 29 6 -3 10 -19 10 -36z m1710 21 c0 -13 -7 -20 -20
-20 -13 0 -20 7 -20 20 0 13 7 20 20 20 13 0 20 -7 20 -20z m78 -3 c2 -12 -3
-17 -17 -17 -15 0 -21 6 -21 21 0 25 33 22 38 -4z m-138 3 c12 -8 12 -10 -5
-9 -11 0 -29 4 -40 9 -18 8 -18 9 5 9 14 0 32 -4 40 -9z m200 0 c-14 -4 -32
-8 -40 -9 -13 -1 -13 0 0 9 8 5 26 9 40 9 l25 -1 -25 -8z m-1812 -39 c3 -24 0
-32 -10 -29 -7 3 -14 19 -16 37 -3 24 0 32 10 29 7 -3 14 -19 16 -37z m1422
30 c0 -5 -22 -11 -48 -15 -27 -3 -57 -13 -68 -21 -26 -19 -42 -19 -23 1 30 29
139 57 139 35z m649 -20 c19 -9 36 -22 38 -28 2 -6 -17 0 -43 13 -26 13 -62
24 -81 24 -18 0 -33 5 -33 11 0 16 75 3 119 -20z m-454 -4 c7 -7 4 -8 -8 -3
-10 3 -27 6 -38 6 -10 0 -19 5 -19 10 0 12 50 2 65 -13z m209 14 c3 -5 -9 -11
-27 -14 -40 -6 -47 0 -16 12 31 13 37 13 43 2z m1883 -28 c-3 -10 -5 -4 -5 12
0 17 2 24 5 18 2 -7 2 -21 0 -30z m-2197 7 c0 -11 -4 -20 -10 -20 -5 0 -10 9
-10 20 0 11 5 20 10 20 6 0 10 -9 10 -20z m370 0 c0 -11 -4 -20 -10 -20 -5 0
-10 9 -10 20 0 11 5 20 10 20 6 0 10 -9 10 -20z m-456 1 c3 -5 -16 -12 -42
-16 -26 -3 -62 -15 -79 -25 -39 -23 -45 -10 -7 14 20 14 61 26 116 35 4 1 9
-3 12 -8z m637 -17 c32 -16 57 -44 39 -44 -10 0 -10 -3 0 -15 16 -20 12 -19
-35 5 -22 11 -56 20 -77 20 -21 0 -38 5 -38 10 0 15 56 12 97 -5 20 -8 38 -13
40 -11 8 8 -54 35 -96 42 -22 4 -38 10 -36 15 7 10 73 0 106 -17z m399 -49 c0
-43 -4 -75 -10 -75 -6 0 -10 32 -10 75 0 43 4 75 10 75 6 0 10 -32 10 -75z
m-1453 -32 c-2 -21 -4 -6 -4 32 0 39 2 55 4 38 2 -18 2 -50 0 -70z m597 84
c16 -12 14 -13 -18 -9 -20 2 -36 8 -36 13 0 13 34 11 54 -4z m66 -7 c0 -13 -7
-20 -20 -20 -13 0 -20 7 -20 20 0 13 7 20 20 20 13 0 20 -7 20 -20z m80 0 c0
-13 -7 -20 -20 -20 -13 0 -20 7 -20 20 0 13 7 20 20 20 13 0 20 -7 20 -20z
m76 11 c-7 -11 -66 -20 -66 -10 0 10 20 17 48 18 13 1 21 -3 18 -8z m664 -66
c0 -43 -4 -75 -10 -75 -6 0 -10 32 -10 75 0 43 4 75 10 75 6 0 10 -32 10 -75z
m-1453 -2 c-2 -16 -4 -5 -4 22 0 28 2 40 4 28 2 -13 2 -35 0 -50z m1503 -8 c0
-60 -3 -75 -15 -75 -12 0 -15 15 -15 75 0 60 3 75 15 75 12 0 15 -15 15 -75z
m276 29 c-3 -8 -10 -14 -16 -14 -14 0 -13 33 3 49 10 10 13 9 15 -4 2 -9 1
-23 -2 -31z m159 17 c-6 -5 -25 10 -25 20 0 5 6 4 14 -3 8 -7 12 -15 11 -17z
m-1898 -78 c-2 -21 -4 -6 -4 32 0 39 2 55 4 38 2 -18 2 -50 0 -70z m1220 0
c-2 -21 -4 -6 -4 32 0 39 2 55 4 38 2 -18 2 -50 0 -70z m-1162 77 c3 -5 1 -10
-4 -10 -6 0 -11 5 -11 10 0 6 2 10 4 10 3 0 8 -4 11 -10z m285 0 c0 -5 -16
-10 -35 -10 -20 0 -54 -9 -75 -20 -22 -11 -40 -16 -40 -11 0 5 19 18 43 30 44
22 107 28 107 11z m190 -1 c11 -7 4 -8 -25 -3 -50 8 -58 14 -19 14 16 0 36 -5
44 -11z m200 1 c-36 -11 -52 -11 -45 0 3 6 21 10 38 9 31 -1 31 -1 7 -9z m617
-22 c-3 -7 -5 -2 -5 12 0 14 2 19 5 13 2 -7 2 -19 0 -25z m-2467 -18 c0 -22
-4 -40 -10 -40 -5 0 -10 18 -10 40 0 22 5 40 10 40 6 0 10 -18 10 -40z m1550
20 c0 -11 -4 -20 -10 -20 -5 0 -10 9 -10 20 0 11 5 20 10 20 6 0 10 -9 10 -20z
m370 0 c0 -11 -4 -20 -10 -20 -5 0 -10 9 -10 20 0 11 5 20 10 20 6 0 10 -9 10
-20z m900 -6 c0 -14 -4 -23 -10 -19 -5 3 -10 1 -10 -4 0 -6 -7 -11 -15 -11 -8
0 -15 -4 -15 -10 0 -5 -4 -10 -10 -10 -5 0 -10 11 -10 25 0 18 7 26 25 31 14
3 25 10 25 15 0 5 5 9 10 9 6 0 10 -12 10 -26z m-2303 -6 c-3 -8 -6 -5 -6 6
-1 11 2 17 5 13 3 -3 4 -12 1 -19z m1138 0 c7 -8 4 -9 -8 -4 -10 3 -27 6 -38
6 -10 0 -19 5 -19 11 0 13 50 3 65 -13z m53 -6 c3 -17 -2 -22 -17 -22 -16 0
-21 6 -21 26 0 33 33 30 38 -4z m79 -6 c-9 -23 -37 -20 -37 3 0 21 20 33 34
20 5 -4 6 -15 3 -23z m83 25 c0 -5 -16 -11 -35 -13 -38 -4 -49 8 -12 15 39 8
47 7 47 -2z m377 -88 c-2 -21 -4 -6 -4 32 0 39 2 55 4 38 2 -18 2 -50 0 -70z
m780 -145 c-1 -46 -3 -9 -3 82 0 91 2 128 3 83 2 -46 2 -120 0 -165z m-2540
200 c-3 -7 -5 -2 -5 12 0 14 2 19 5 13 2 -7 2 -19 0 -25z m978 22 c4 -6 -9
-10 -32 -10 -21 0 -56 -9 -78 -20 -41 -21 -55 -21 -30 0 36 30 128 50 140 30z
m651 -21 c50 -31 41 -40 -13 -13 -25 13 -61 24 -80 24 -18 0 -33 5 -33 11 0
18 87 3 126 -22z m1094 -26 c0 -43 -3 -50 -30 -65 l-30 -17 0 56 c0 31 3 54 6
50 4 -3 13 0 21 8 25 25 33 17 33 -32z m547 0 c-3 -10 -5 -2 -5 17 0 19 2 27
5 18 2 -10 2 -26 0 -35z m-3290 15 c-3 -8 -6 -5 -6 6 -1 11 2 17 5 13 3 -3 4
-12 1 -19z m1179 14 c6 -4 11 -14 11 -24 0 -13 -7 -15 -36 -11 -50 8 -52 13
-5 14 l39 1 -40 13 c-38 12 -39 13 -10 14 17 0 35 -3 41 -7z m194 -7 l-35 -13
34 -1 c40 -1 38 -6 -5 -14 -24 -5 -31 -2 -31 11 0 22 15 32 47 31 22 0 21 -2
-10 -14z m-376 -4 c3 -5 -16 -11 -42 -15 -26 -3 -62 -15 -79 -26 -18 -11 -33
-16 -33 -11 0 14 46 40 87 50 51 12 61 12 67 2z m622 -12 c34 -10 77 -49 54
-49 -10 0 -10 -3 0 -15 16 -20 12 -19 -35 5 -22 11 -56 20 -77 20 -21 0 -38 5
-38 10 0 16 68 12 101 -6 17 -8 33 -14 35 -11 13 12 -70 47 -113 47 -14 0 -21
4 -18 10 6 10 31 7 91 -11z m-1536 -14 c0 -14 -3 -25 -7 -25 -5 0 -8 11 -8 25
0 14 3 25 8 25 4 0 7 -11 7 -25z m1000 5 c0 -11 -4 -20 -10 -20 -5 0 -10 9
-10 20 0 11 5 20 10 20 6 0 10 -9 10 -20z m183 -7 c-3 -27 -3 -27 7 -5 12 27
43 26 48 -1 3 -12 -4 -20 -19 -24 l-23 -6 22 -8 c29 -11 28 -37 0 -49 l-23 -9
23 0 c15 -1 22 -7 22 -21 0 -12 -10 -24 -22 -30 l-23 -9 23 0 c15 -1 22 -7 22
-21 0 -14 -7 -20 -22 -21 l-23 0 23 -9 c12 -6 22 -18 22 -30 0 -14 -7 -20 -22
-21 l-23 0 23 -10 c29 -11 26 -43 -5 -47 -15 -2 -23 3 -26 18 -4 18 -5 18 -4
-2 1 -13 -3 -23 -8 -23 -5 0 -9 9 -9 20 1 15 0 16 -3 3 -3 -10 -13 -18 -24
-18 -29 0 -26 48 4 52 15 2 22 10 23 26 1 18 1 19 -3 2 -2 -12 -13 -20 -24
-20 -17 0 -19 8 -19 80 0 69 2 80 18 81 16 1 16 2 0 6 -27 7 -23 51 5 55 17 2
22 10 23 33 2 29 2 29 -3 3 -6 -37 -43 -40 -43 -4 0 23 9 29 56 35 7 0 10 -10
7 -26z m187 7 c0 -11 -4 -20 -10 -20 -5 0 -10 9 -10 20 0 11 5 20 10 20 6 0
10 -9 10 -20z m551 -284 c1 -163 -1 -300 -5 -303 -3 -3 -6 132 -6 302 0 170 2
306 5 303 3 -2 5 -138 6 -302z m-1954 247 c-3 -10 -5 -2 -5 17 0 19 2 27 5 18
2 -10 2 -26 0 -35z m2621 0 c-2 -35 -7 -47 -20 -49 -15 -2 -18 5 -17 44 l2 47
7 -40 7 -40 2 43 c0 23 6 42 12 42 6 0 9 -19 7 -47z m-2651 -10 c-3 -10 -5 -2
-5 17 0 19 2 27 5 18 2 -10 2 -26 0 -35z m2830 -15 c-2 -13 -4 -3 -4 22 0 25
2 35 4 23 2 -13 2 -33 0 -45z m-1852 42 c-3 -5 -22 -10 -41 -10 -19 0 -53 -9
-74 -20 -22 -11 -40 -16 -40 -11 0 16 84 51 123 51 23 0 36 -4 32 -10z m181
-6 c17 -14 17 -15 1 -10 -10 3 -27 6 -38 6 -10 0 -19 5 -19 10 0 15 34 12 56
-6z m224 6 c0 -5 -15 -11 -32 -11 l-33 -2 35 -7 c22 -5 27 -8 13 -9 -12 0 -28
-3 -36 -6 -16 -7 -20 26 -3 37 16 11 56 10 56 -2z m-1400 -25 c0 -14 -4 -25
-10 -25 -11 0 -14 33 -3 43 11 11 13 8 13 -18z m-470 -61 c0 -36 -4 -64 -10
-64 -6 0 -10 30 -10 71 0 44 4 68 10 64 6 -3 10 -35 10 -71z m2300 72 c0 -2
-7 -7 -16 -10 -8 -3 -12 -2 -9 4 6 10 25 14 25 6z m-840 -16 c0 -5 -15 -10
-33 -10 -18 0 -50 -9 -72 -20 -45 -23 -49 -24 -39 -9 18 30 144 64 144 39z
m90 -10 c0 -11 -4 -20 -10 -20 -5 0 -10 9 -10 20 0 11 5 20 10 20 6 0 10 -9
10 -20z m100 9 c11 -7 4 -8 -25 -3 -50 8 -58 14 -19 14 16 0 36 -5 44 -11z
m270 -9 c0 -11 -4 -20 -10 -20 -5 0 -10 9 -10 20 0 11 5 20 10 20 6 0 10 -9
10 -20z m197 -11 c46 -29 36 -34 -18 -9 -24 11 -59 20 -76 20 -18 0 -33 5 -33
11 0 18 87 3 127 -22z m383 -29 c0 -27 -4 -50 -10 -50 -5 0 -10 23 -10 50 0
28 5 50 10 50 6 0 10 -22 10 -50z m-845 18 c7 -8 4 -9 -8 -4 -10 3 -30 6 -43
6 -16 0 -23 4 -18 11 7 12 54 3 69 -13z m215 13 c0 -5 -16 -11 -35 -13 -36 -4
-49 7 -17 15 30 8 52 7 52 -2z m660 -42 c0 -31 -4 -48 -10 -44 -5 3 -10 26
-10 51 0 24 5 44 10 44 6 0 10 -23 10 -51z m-1978 17 c3 -15 0 -27 -8 -30 -10
-4 -14 3 -14 24 0 36 16 40 22 6z m912 15 c3 -5 -16 -11 -42 -15 -26 -3 -62
-15 -79 -26 -18 -11 -33 -16 -33 -11 0 15 28 32 72 46 51 16 75 18 82 6z m649
-24 c20 -11 37 -24 37 -29 0 -12 -11 -10 -29 6 -20 17 -77 36 -108 36 -14 0
-22 4 -18 10 9 15 72 2 118 -23z m274 -19 c-2 -13 -4 -5 -4 17 -1 22 1 32 4
23 2 -10 2 -28 0 -40z m193 1 c0 -66 -24 -62 -28 4 -2 37 0 47 12 47 12 0 16
-12 16 -51z m-2063 -6 c-3 -10 -5 -2 -5 17 0 19 2 27 5 18 2 -10 2 -26 0 -35z
m600 15 c-3 -7 -5 -2 -5 12 0 14 2 19 5 13 2 -7 2 -19 0 -25z m1220 -30 c-2
-13 -4 -3 -4 22 0 25 2 35 4 23 2 -13 2 -33 0 -45z m-1859 -9 c-22 -15 -28
-10 -28 21 0 35 17 40 23 8 4 -19 5 -18 7 7 l3 30 4 -29 c3 -17 -1 -32 -9 -37z
m1166 55 c29 -11 17 -23 -14 -14 -19 5 -28 5 -25 -1 4 -5 15 -9 25 -9 10 0 22
-5 26 -12 5 -8 0 -9 -17 -5 -13 4 -31 7 -39 7 -9 0 -16 9 -16 20 0 21 27 27
60 14z m196 -9 l-35 -13 34 -1 c40 -1 38 -6 -5 -14 -24 -5 -31 -2 -31 11 0 22
15 32 47 31 22 0 21 -2 -10 -14z m453 8 c-16 -6 -17 -39 -3 -48 12 -7 4 -25
-11 -25 -10 0 -13 63 -2 73 3 4 11 7 17 6 6 0 5 -3 -1 -6z m674 -30 c-3 -10
-5 -4 -5 12 0 17 2 24 5 18 2 -7 2 -21 0 -30z m243 -31 c0 -64 -2 -70 -25 -80
-14 -7 -28 -12 -30 -12 -3 0 -5 32 -5 72 0 39 3 69 6 65 4 -3 13 0 21 8 26 27
33 16 33 -53z m-1660 38 c0 -11 -4 -20 -10 -20 -5 0 -10 9 -10 20 0 11 5 20
10 20 6 0 10 -9 10 -20z m370 0 c0 -11 -4 -20 -10 -20 -5 0 -10 9 -10 20 0 11
5 20 10 20 6 0 10 -9 10 -20z m327 -42 c-2 -13 -4 -3 -4 22 0 25 2 35 4 23 2
-13 2 -33 0 -45z m-782 42 c-3 -5 -23 -10 -43 -10 -21 0 -54 -9 -75 -20 -20
-11 -37 -16 -37 -11 0 16 84 51 123 51 23 0 36 -4 32 -10z m635 -10 c21 -11
41 -24 45 -30 9 -15 0 -12 -38 10 -18 11 -52 21 -75 22 -23 1 -42 5 -42 10 0
15 71 8 110 -12z m1040 -59 c0 -60 -2 -69 -20 -74 -19 -5 -20 0 -20 65 0 43 4
67 10 63 6 -3 10 -1 10 4 0 6 5 11 10 11 6 0 10 -30 10 -69z m177 22 c-3 -10
-5 -4 -5 12 0 17 2 24 5 18 2 -7 2 -21 0 -30z m-1857 17 c0 -5 -15 -10 -33
-10 -18 0 -50 -9 -72 -20 -45 -23 -49 -24 -39 -9 18 30 144 64 144 39z m186
-6 c17 -14 17 -15 1 -10 -10 3 -27 6 -38 6 -10 0 -19 5 -19 10 0 15 34 12 56
-6z m224 7 c0 -5 -16 -11 -35 -13 -36 -4 -49 7 -17 15 30 8 52 7 52 -2z m226
-10 c23 -10 45 -24 48 -30 10 -15 5 -14 -45 9 -24 11 -59 20 -76 20 -18 0 -33
5 -33 10 0 16 62 11 106 -9z m-1579 -78 c-2 -16 -4 -3 -4 27 0 30 2 43 4 28 2
-16 2 -40 0 -55z m33 42 c0 -19 0 -38 1 -42 0 -4 -4 -9 -10 -11 -7 -2 -11 14
-11 42 0 25 5 46 10 46 6 0 10 -16 10 -35z m1000 15 c0 -11 -4 -20 -10 -20 -5
0 -10 9 -10 20 0 11 5 20 10 20 6 0 10 -9 10 -20z m370 0 c0 -11 -4 -20 -10
-20 -5 0 -10 9 -10 20 0 11 5 20 10 20 6 0 10 -9 10 -20z m-1442 -91 c-23 -15
-28 -10 -28 32 0 28 6 46 18 55 15 11 17 8 20 -33 2 -30 -1 -49 -10 -54z m987
91 c4 -6 -7 -10 -27 -10 -33 0 -125 -36 -116 -45 3 -3 21 2 41 10 36 15 117
21 104 8 -4 -3 -24 -8 -45 -10 -20 -2 -53 -12 -73 -23 l-36 -18 0 24 c0 29 14
42 69 59 53 17 75 18 83 5z m185 0 c12 -8 11 -10 -5 -9 -11 1 -31 5 -45 9 -24
8 -24 8 5 9 17 0 37 -4 45 -9z m200 0 c-36 -11 -52 -11 -45 0 3 6 21 10 38 9
31 -1 31 -1 7 -9z m263 -23 c20 -11 37 -25 37 -30 0 -5 -15 1 -34 12 -18 12
-54 24 -80 27 -25 4 -46 11 -46 16 0 15 80 -1 123 -25z m387 -42 c0 -37 -4
-65 -10 -65 -6 0 -10 28 -10 65 0 37 4 65 10 65 6 0 10 -28 10 -65z m30 -2 c1
-67 14 -103 39 -103 7 0 11 -24 11 -71 0 -52 -3 -70 -12 -67 -8 3 -15 30 -18
69 -10 122 -50 132 -50 12 0 -35 -4 -63 -10 -63 -15 0 -13 127 2 132 8 3 14
33 16 81 5 95 22 102 22 10z m50 -19 c0 -48 -3 -65 -12 -62 -8 3 -15 31 -18
75 -5 65 -4 70 13 62 13 -8 17 -23 17 -75z m387 24 c-2 -13 -4 -3 -4 22 0 25
2 35 4 23 2 -13 2 -33 0 -45z m-1312 30 c7 -8 4 -9 -8 -4 -10 3 -30 6 -43 6
-16 0 -23 4 -18 11 7 12 54 3 69 -13z m210 12 c3 -5 -3 -10 -14 -10 -10 0 -26
-3 -35 -6 -9 -3 -16 -1 -16 4 0 6 10 13 23 15 12 2 25 5 29 6 4 0 10 -3 13 -9z
m522 -82 c-2 -18 -4 -4 -4 32 0 36 2 50 4 33 2 -18 2 -48 0 -65z m-2387 26 c0
-24 -4 -44 -10 -44 -5 0 -10 23 -10 51 0 31 4 48 10 44 6 -3 10 -26 10 -51z
m2341 -1 c2 -29 0 -56 -4 -59 -4 -4 -7 21 -7 56 0 75 7 77 11 3z m-248 34 c18
-8 38 -21 46 -30 18 -22 10 -21 -31 3 -18 10 -50 20 -71 22 -21 1 -41 6 -43
10 -8 13 64 9 99 -5z m205 -44 c-4 -77 -28 -86 -28 -10 0 29 3 57 7 60 17 18
24 2 21 -50z m-748 27 c0 -11 -4 -20 -10 -20 -5 0 -10 9 -10 20 0 11 5 20 10
20 6 0 10 -9 10 -20z m96 12 c6 -4 11 -15 11 -25 0 -14 -6 -17 -21 -13 -12 3
-30 6 -41 7 -11 1 -4 5 15 9 31 6 32 8 8 9 -37 1 -47 21 -11 21 15 0 33 -4 39
-8z m219 -2 c-3 -5 -18 -11 -33 -11 -24 -1 -23 -3 8 -9 22 -5 27 -8 13 -9 -12
0 -28 -3 -36 -6 -16 -7 -20 26 -3 37 17 11 58 10 51 -2z m55 -10 c0 -11 -4
-20 -10 -20 -5 0 -10 9 -10 20 0 11 5 20 10 20 6 0 10 -9 10 -20z m330 -35 c0
-30 -3 -55 -7 -55 -5 0 -6 25 -5 55 5 71 12 71 12 0z m-790 25 c0 -5 -15 -10
-32 -10 -18 0 -52 -9 -76 -20 -23 -11 -40 -15 -36 -9 18 31 144 64 144 39z
m636 -9 c23 -10 45 -24 48 -30 10 -16 1 -14 -41 9 -21 11 -55 20 -75 20 -21 0
-38 5 -38 10 0 16 62 11 106 -9z m-631 -21 c4 -6 -7 -10 -27 -10 -35 0 -125
-36 -115 -46 3 -3 19 2 36 10 16 9 49 16 73 15 l43 -1 -57 -13 c-31 -6 -68
-19 -81 -28 -24 -15 -24 -15 -24 8 0 29 14 43 64 61 46 16 80 18 88 4z m181
-6 c17 -14 17 -15 1 -10 -10 3 -27 6 -38 6 -10 0 -19 5 -19 10 0 15 34 12 56
-6z m224 7 c0 -5 -16 -11 -35 -13 -36 -4 -49 7 -17 15 30 8 52 7 52 -2z m241
-21 c21 -11 39 -25 39 -31 0 -6 -15 -1 -34 10 -18 12 -54 24 -80 27 -25 4 -46
11 -46 17 0 14 75 0 121 -23z m-1561 -5 c0 -14 -4 -25 -10 -25 -5 0 -10 11
-10 25 0 14 5 25 10 25 6 0 10 -11 10 -25z m1000 5 c0 -11 -4 -20 -10 -20 -5
0 -10 9 -10 20 0 11 5 20 10 20 6 0 10 -9 10 -20z m370 0 c0 -11 -4 -20 -10
-20 -5 0 -10 9 -10 20 0 11 5 20 10 20 6 0 10 -9 10 -20z m1290 3 c0 -15 -2
-16 -10 -3 -7 10 -10 -6 -10 -54 0 -77 -16 -81 -23 -6 -4 43 -4 43 -4 -7 1
-29 -2 -56 -6 -60 -4 -3 -7 26 -7 65 0 71 4 79 43 81 10 1 17 -6 17 -16z
m-2693 -40 c-3 -10 -5 -2 -5 17 0 19 2 27 5 18 2 -10 2 -26 0 -35z m-30 0 c-3
-10 -5 -4 -5 12 0 17 2 24 5 18 2 -7 2 -21 0 -30z m1163 27 c12 -8 11 -10 -5
-9 -11 1 -31 5 -45 9 -24 8 -24 8 5 9 17 0 37 -4 45 -9z m200 0 c-14 -4 -32
-8 -40 -9 -13 -1 -13 0 0 9 8 5 26 9 40 9 l25 -1 -25 -8z m1117 -27 c-3 -10
-5 -4 -5 12 0 17 2 24 5 18 2 -7 2 -21 0 -30z m173 -33 c0 -87 -19 -94 -22 -7
l-1 62 -7 -65 -7 -65 -1 67 c-2 63 3 74 31 77 4 1 7 -30 7 -69z m-2670 33 c0
-29 -12 -24 -17 7 -2 11 2 20 7 20 6 0 10 -12 10 -27z m1623 14 c18 -8 38 -21
46 -30 17 -21 7 -22 -24 -1 -14 9 -48 22 -77 29 -52 13 -52 13 -15 14 21 1 52
-5 70 -12z m-438 -19 c7 -8 4 -9 -8 -4 -10 3 -30 6 -43 6 -16 0 -23 4 -18 11
7 12 54 3 69 -13z m215 13 c0 -9 -61 -22 -69 -15 -5 4 39 22 57 23 6 1 12 -3
12 -8z m-1870 -62 c0 -27 -4 -49 -10 -49 -5 0 -10 25 -10 56 0 34 4 53 10 49
6 -3 10 -28 10 -56z m970 -13 c0 -55 -3 -64 -19 -69 -28 -7 -31 -1 -31 63 0
63 1 65 30 67 18 2 20 -4 20 -61z m490 54 c0 -5 -15 -10 -32 -10 -18 0 -52 -9
-75 -20 -45 -20 -58 -14 -21 9 44 28 128 41 128 21z m90 -11 c0 -11 -4 -17
-10 -14 -5 3 -10 13 -10 21 0 8 5 14 10 14 6 0 10 -9 10 -21z m162 -7 c6 -40
-5 -76 -25 -80 -12 -3 -17 3 -17 22 0 20 5 26 23 27 l22 2 -22 4 c-16 3 -23
11 -23 29 0 36 36 33 42 -4z m73 3 c0 -27 -31 -32 -38 -6 -6 24 1 33 23 29 8
-2 15 -12 15 -23z m135 4 c0 -11 -4 -17 -10 -14 -5 3 -10 13 -10 21 0 8 5 14
10 14 6 0 10 -9 10 -21z m176 2 c23 -10 45 -24 48 -30 10 -16 1 -14 -44 9 -22
11 -55 20 -75 20 -19 0 -35 5 -35 10 0 16 62 11 106 -9z m434 -51 c0 -40 -4
-70 -10 -70 -6 0 -10 30 -10 70 0 40 4 70 10 70 6 0 10 -30 10 -70z m-1630 -5
c0 -51 -3 -65 -15 -65 -12 0 -15 13 -15 58 0 32 3 62 7 65 17 17 23 2 23 -58z
m746 49 c17 -14 17 -15 1 -10 -10 3 -27 6 -38 6 -10 0 -19 5 -19 10 0 15 34
12 56 -6z m219 6 c-4 -6 -9 -9 -13 -6 -4 2 -16 0 -27 -5 -16 -6 -13 -8 14 -8
40 -1 38 -6 -5 -14 -24 -5 -31 -2 -31 11 0 9 5 20 11 24 17 12 58 9 51 -2z
m522 -82 c-2 -18 -4 -4 -4 32 0 36 2 50 4 33 2 -18 2 -48 0 -65z m-1527 18 c0
-55 -3 -64 -20 -69 -17 -4 -20 0 -22 31 l-1 37 -4 -37 c-3 -23 -9 -38 -18 -38
-10 0 -14 19 -17 68 l-3 67 43 2 42 2 0 -63z m1486 7 c-1 -39 -5 -58 -15 -61
-10 -3 -12 0 -8 12 4 10 7 38 7 62 0 24 4 44 9 44 5 0 8 -25 7 -57z m-1829
-15 c-2 -13 -4 -3 -4 22 0 25 2 35 4 23 2 -13 2 -33 0 -45z m943 53 c0 -5 -22
-11 -48 -15 -26 -3 -58 -13 -71 -22 -12 -9 -25 -14 -28 -11 -2 3 7 13 21 23
40 26 126 43 126 25z m649 -20 c19 -9 36 -22 38 -28 2 -6 -17 0 -43 13 -26 13
-62 24 -81 24 -18 0 -33 5 -33 11 0 16 75 3 119 -20z m141 -37 c0 -44 -4 -63
-11 -59 -6 5 -9 29 -6 64 6 63 5 61 12 61 3 0 5 -30 5 -66z m50 6 c0 -47 -3
-60 -15 -60 -12 0 -15 13 -15 60 0 47 3 60 15 60 12 0 15 -13 15 -60z m-1813
-12 c-2 -13 -4 -3 -4 22 0 25 2 35 4 23 2 -13 2 -33 0 -45z m1163 51 c11 -7 4
-8 -25 -3 -50 8 -58 14 -19 14 16 0 36 -5 44 -11z m-1183 -51 c-2 -13 -4 -5
-4 17 -1 22 1 32 4 23 2 -10 2 -28 0 -40z m1083 25 c0 -20 -3 -24 -11 -16 -7
7 -9 19 -6 27 10 24 17 19 17 -11z m370 0 c0 -20 -3 -24 -11 -16 -7 7 -9 19
-6 27 10 24 17 19 17 -11z m-265 -5 c7 -8 4 -9 -8 -4 -10 3 -27 6 -38 6 -10 0
-19 5 -19 11 0 13 50 3 65 -13z m131 7 c3 -8 3 -19 0 -24 -10 -16 -36 -1 -36
20 0 22 28 26 36 4z m84 6 c0 -5 -16 -11 -35 -13 -36 -4 -49 7 -17 15 30 8 52
7 52 -2z m248 -26 c17 -11 32 -23 32 -27 0 -12 -5 -10 -42 11 -18 11 -52 22
-76 26 -23 4 -40 10 -37 14 7 13 88 -3 123 -24z m-706 10 c-29 -7 -64 -20 -77
-29 -14 -9 -25 -12 -25 -6 0 18 74 49 115 48 l40 0 -53 -13z m234 -13 c17 -11
13 -44 -3 -37 -8 3 -23 5 -34 5 -10 0 -19 4 -19 8 0 5 15 7 33 5 l32 -3 -35
14 c-31 13 -32 15 -10 15 14 0 30 -3 36 -7z m197 -3 c-39 -11 -44 -23 -8 -17
14 3 28 1 31 -3 3 -5 -4 -9 -15 -9 -10 0 -26 -2 -34 -5 -8 -4 -14 1 -14 12 0
23 15 33 47 32 22 -1 21 -2 -7 -10z m-383 -9 c0 -5 -16 -10 -35 -10 -20 0 -54
-9 -75 -20 -22 -11 -40 -16 -40 -11 0 5 19 18 43 30 44 22 107 28 107 11z
m636 -9 c23 -10 45 -24 48 -30 10 -15 6 -14 -39 9 -22 11 -56 20 -77 20 -21 0
-38 5 -38 10 0 16 62 11 106 -9z m-1762 -4 c3 3 6 -23 6 -60 0 -60 -2 -66 -20
-64 -18 1 -20 8 -20 59 0 34 -4 58 -11 58 -5 0 -7 5 -4 10 4 7 12 7 24 0 10
-5 21 -6 25 -3z m1216 -14 c0 -20 -3 -24 -11 -16 -7 7 -9 19 -6 27 10 24 17
19 17 -11z m370 0 c0 -20 -3 -24 -11 -16 -7 7 -9 19 -6 27 10 24 17 19 17 -11z
m-1270 -49 c0 -59 -20 -56 -22 4 l-1 47 -4 -42 c-3 -29 -9 -43 -19 -43 -10 0
-14 13 -14 49 l0 50 30 -10 c27 -10 30 -15 30 -55z m1060 46 c0 -13 -7 -20
-20 -20 -13 0 -20 7 -20 20 0 13 7 20 20 20 13 0 20 -7 20 -20z m80 0 c0 -13
-7 -20 -20 -20 -13 0 -20 7 -20 20 0 13 7 20 20 20 13 0 20 -7 20 -20z m1400
-47 c0 -81 -11 -77 -17 7 -2 38 0 60 6 60 7 0 11 -27 11 -67z m-1730 48 c0 -4
-18 -11 -39 -14 -22 -3 -54 -12 -72 -21 -36 -18 -48 -16 -24 4 34 28 135 52
135 31z m656 -22 c50 -31 41 -40 -13 -13 -25 13 -61 24 -80 24 -18 0 -33 5
-33 11 0 18 87 3 126 -22z m1041 -61 c-2 -18 -4 -4 -4 32 0 36 2 50 4 33 2
-18 2 -48 0 -65z m-3165 47 c-6 -34 -12 -32 -12 6 0 16 4 28 9 25 4 -3 6 -17
3 -31z m396 -23 c3 -47 1 -52 -17 -52 -19 0 -21 6 -21 56 0 47 3 55 18 52 13
-2 18 -15 20 -56z m296 52 c11 -4 16 -19 16 -50 0 -37 -3 -44 -20 -44 -17 0
-20 7 -20 50 0 28 2 50 4 50 2 0 11 -3 20 -6z m962 -10 c17 -14 17 -15 1 -10
-10 3 -27 6 -38 6 -10 0 -19 5 -19 10 0 15 34 12 56 -6z m224 6 c0 -5 -15 -11
-32 -11 l-33 -2 35 -7 c22 -5 27 -8 13 -9 -12 0 -28 -3 -36 -6 -16 -7 -20 26
-3 37 16 11 56 10 56 -2z m1270 -45 c0 -30 -4 -55 -10 -55 -5 0 -10 25 -10 55
0 30 5 55 10 55 6 0 10 -25 10 -55z m-2653 -17 c-2 -13 -4 -3 -4 22 0 25 2 35
4 23 2 -13 2 -33 0 -45z m30 40 c-3 -8 -6 -5 -6 6 -1 11 2 17 5 13 3 -3 4 -12
1 -19z m2590 -55 c-2 -16 -4 -3 -4 27 0 30 2 43 4 28 2 -16 2 -40 0 -55z m331
45 c-4 -41 -28 -50 -28 -10 0 16 3 32 7 35 15 16 24 5 21 -25z m-2468 -23 c0
-25 -4 -45 -10 -45 -5 0 -10 20 -10 45 0 25 5 45 10 45 6 0 10 -20 10 -45z
m1530 0 c0 -25 -4 -45 -10 -45 -5 0 -10 20 -10 45 0 25 5 45 10 45 6 0 10 -20
10 -45z m30 0 c0 -25 -4 -45 -10 -45 -5 0 -10 20 -10 45 0 25 5 45 10 45 6 0
10 -20 10 -45z m869 8 c-1 -37 -1 -37 -8 -8 -7 28 -5 45 5 45 2 0 3 -17 3 -37z
m-2499 -13 c0 -29 -4 -40 -15 -40 -10 0 -15 10 -15 33 0 19 3 37 7 40 15 16
23 5 23 -33z m40 0 c0 -22 -4 -40 -10 -40 -5 0 -10 18 -10 40 0 22 5 40 10 40
6 0 10 -18 10 -40z m473 26 c-28 -7 -63 -20 -77 -30 -14 -9 -26 -12 -26 -6 0
17 74 49 115 49 l40 -1 -52 -12z m137 -13 c0 -20 -3 -24 -11 -16 -7 7 -9 19
-6 27 10 24 17 19 17 -11z m100 17 c13 -9 13 -10 0 -9 -8 1 -26 5 -40 9 l-25
8 25 1 c14 0 32 -4 40 -9z m270 -17 c0 -20 -3 -24 -11 -16 -7 7 -9 19 -6 27
10 24 17 19 17 -11z m187 6 c24 -11 43 -25 43 -30 0 -13 -11 -11 -30 6 -9 8
-43 21 -76 29 -56 14 -57 14 -20 15 22 1 59 -8 83 -20z m280 -41 c-2 -13 -4
-3 -4 22 0 25 2 35 4 23 2 -13 2 -33 0 -45z m193 22 c0 -29 -4 -40 -15 -40
-11 0 -15 11 -15 40 0 29 4 40 15 40 11 0 15 -11 15 -40z m-1720 -5 c0 -28 -4
-35 -20 -35 -15 0 -20 7 -20 28 0 32 7 42 27 42 8 0 13 -12 13 -35z m850 15
c0 -13 -7 -20 -20 -20 -13 0 -20 7 -20 20 0 13 7 20 20 20 13 0 20 -7 20 -20z
m75 0 c0 -8 -8 -16 -17 -18 -13 -2 -18 3 -18 18 0 15 5 20 18 18 9 -2 17 -10
17 -18z m557 -15 c-2 -19 -6 -35 -8 -35 -2 0 -4 16 -4 35 0 19 4 35 8 35 4 0
6 -16 4 -35z m309 25 c14 0 19 -7 19 -30 0 -28 -3 -30 -35 -30 -34 0 -35 2
-35 36 0 29 3 35 16 30 9 -3 24 -6 35 -6z m-1841 -30 c0 -20 -5 -30 -15 -30
-10 0 -15 10 -15 30 0 20 5 30 15 30 10 0 15 -10 15 -30z m845 8 c7 -8 4 -9
-8 -4 -10 3 -27 6 -38 6 -10 0 -19 5 -19 11 0 13 50 3 65 -13z m215 12 c0 -5
-9 -10 -19 -10 -11 0 -26 -3 -35 -6 -9 -3 -16 -1 -16 4 0 11 21 19 53 21 9 0
17 -3 17 -9z m430 -20 c0 -20 -5 -30 -15 -30 -10 0 -15 10 -15 30 0 20 5 30
15 30 10 0 15 -10 15 -30z m-840 10 c0 -5 -16 -10 -36 -10 -19 0 -44 -5 -55
-11 -11 -6 -25 -8 -32 -6 -18 7 54 36 91 37 17 0 32 -4 32 -10z m641 -11 c50
-25 46 -35 -4 -14 -20 8 -52 15 -72 15 -19 0 -35 5 -35 10 0 17 69 11 111 -11z
m149 -4 c0 -14 -2 -25 -4 -25 -2 0 -6 11 -8 25 -3 14 -1 25 3 25 5 0 9 -11 9
-25z m-605 -5 l20 -9 -20 0 c-11 0 -29 4 -40 9 l-20 9 20 0 c11 0 29 -4 40 -9z
m195 -4 c-37 -14 -54 -11 -30 4 8 6 26 9 40 9 22 0 21 -2 -10 -13z m-380 -6
c0 -5 -19 -10 -42 -9 -33 0 -38 2 -23 9 28 12 65 12 65 0z m90 0 c0 -5 -5 -10
-11 -10 -5 0 -7 5 -4 10 3 6 8 10 11 10 2 0 4 -4 4 -10z m155 0 c3 -5 -3 -10
-14 -10 -12 0 -21 5 -21 10 0 6 6 10 14 10 8 0 18 -4 21 -10z m80 0 c3 -5 -3
-10 -14 -10 -12 0 -21 5 -21 10 0 6 6 10 14 10 8 0 18 -4 21 -10z m135 0 c0
-5 -5 -10 -11 -10 -5 0 -7 5 -4 10 3 6 8 10 11 10 2 0 4 -4 4 -10z m150 0 c20
-6 14 -8 -27 -9 -29 -1 -53 3 -53 9 0 12 44 12 80 0z m-1453 -6 c-3 -3 -12 -4
-19 -1 -8 3 -5 6 6 6 11 1 17 -2 13 -5z m2240 0 c-3 -3 -12 -4 -19 -1 -8 3 -5
6 6 6 11 1 17 -2 13 -5z m-1462 -62 c16 -10 40 -38 53 -62 23 -44 23 -48 17
-275 -8 -265 -13 -284 -85 -322 -33 -18 -59 -23 -114 -23 -85 0 -130 19 -164
70 l-24 35 7 235 c7 258 16 299 73 336 56 37 177 40 237 6z m-1288 -36 l36
-39 -6 -135 c-7 -157 8 -133 -159 -249 -80 -56 -97 -73 -98 -94 0 -14 -3 -47
-6 -73 l-7 -46 -68 0 c-38 0 -69 3 -69 8 0 15 62 658 64 667 2 6 53 8 140 5
l138 -5 35 -39z m493 9 c-1 -32 -37 -634 -39 -642 -1 -2 -32 -3 -70 -3 l-70 0
6 104 6 104 -54 4 c-30 2 -56 3 -58 1 -2 -1 -5 -35 -8 -75 -2 -40 -6 -88 -9
-105 l-5 -33 -70 0 -69 0 5 73 c3 39 8 84 10 100 3 15 -4 50 -15 78 -25 63
-25 67 3 71 21 3 23 10 33 124 11 130 26 170 76 207 34 26 77 32 215 32 l113
0 0 -40z m241 -20 c24 -35 47 -65 51 -65 4 0 8 28 10 61 l3 61 63 0 c35 0 65
-1 66 -3 3 -3 -20 -662 -23 -676 -1 -2 -32 -3 -71 -3 l-69 0 5 138 c3 75 7
152 9 171 3 28 -4 45 -43 100 l-47 66 -8 -145 c-4 -80 -10 -187 -13 -237 l-6
-93 -70 0 -70 0 6 63 c3 34 10 157 16 272 6 116 13 243 16 283 l6 72 62 0 63
0 44 -65z m995 28 c49 -35 64 -86 64 -217 l0 -115 -32 -24 -32 -25 33 -121
c17 -67 34 -128 37 -136 5 -12 -7 -15 -69 -15 l-75 0 -18 75 c-22 95 -26 100
-53 86 -19 -10 -21 -20 -21 -86 l0 -75 -70 0 -70 0 0 338 c0 186 2 341 4 343
2 2 64 2 138 -1 117 -4 137 -8 164 -27z m518 -115 c3 -84 9 -240 12 -345 l7
-193 -70 0 -71 0 -4 100 c-2 54 -6 101 -8 103 -3 3 -29 7 -57 9 l-53 5 0 -108
0 -109 -70 0 -70 0 0 99 c0 83 -4 107 -25 155 -14 31 -25 58 -25 61 0 2 10 5
22 7 22 3 23 5 20 114 -3 95 -1 119 16 157 35 79 77 94 253 96 l116 1 7 -152z
m291 87 l73 -65 59 61 59 61 82 1 82 2 5 -40 c2 -22 11 -161 20 -310 8 -148
17 -285 20 -303 l4 -33 -72 3 -72 3 -14 263 c-8 144 -18 261 -22 260 -4 -2
-23 -23 -44 -48 -35 -42 -37 -47 -31 -100 3 -30 8 -128 12 -217 l7 -163 -72 0
-71 0 0 63 c-1 34 -5 134 -10 221 l-8 159 -47 46 -47 46 6 -115 c3 -63 9 -184
12 -267 l7 -153 -70 0 -70 0 -6 143 c-4 78 -10 233 -13 345 l-7 202 78 0 77 0
73 -65z m685 9 c0 -44 0 -44 -35 -44 -35 0 -35 0 -30 -37 5 -36 35 -415 35
-441 0 -7 14 -12 34 -12 30 0 34 -4 40 -31 14 -72 20 -69 -127 -69 l-133 0
-22 44 -21 45 42 3 42 3 -1 50 c0 28 -6 139 -14 248 l-13 197 -27 0 c-21 0
-30 9 -48 45 l-21 44 142 3 c78 2 145 2 150 0 4 -2 7 -23 7 -48z m364 9 c13
-80 16 -77 -83 -70 l-90 6 5 -32 c5 -41 34 -360 34 -380 0 -34 29 -47 106 -47
82 0 79 2 88 -72 l6 -48 -93 0 c-50 0 -108 5 -129 10 -45 13 -105 77 -112 122
-6 32 -46 503 -46 533 0 13 23 15 154 15 l153 0 7 -37z m-2929 -698 c103 -27
128 -63 126 -184 -2 -98 -17 -134 -71 -166 -73 -42 -232 -17 -285 46 -21 26
-25 40 -25 97 1 128 26 179 106 207 51 18 77 18 149 0z m-418 -18 c39 -21 63
-63 63 -112 0 -49 -15 -74 -56 -91 l-34 -14 27 -43 c15 -23 34 -50 42 -59 13
-17 10 -18 -56 -18 l-71 0 -33 55 c-18 30 -37 55 -41 55 -4 0 -8 -25 -8 -55
l0 -55 -75 0 c-53 0 -75 4 -75 13 0 6 7 72 15 145 8 74 12 138 9 143 -3 5 -23
18 -45 29 -21 11 -39 23 -39 26 0 3 78 4 173 2 141 -2 178 -6 204 -21z m806
-117 l-6 -140 92 0 c50 0 91 -4 91 -9 0 -5 -3 -23 -6 -40 l-6 -31 -162 0 -161
0 9 152 c5 88 5 153 0 155 -5 2 -27 14 -49 28 l-40 24 122 1 121 0 -5 -140z
m575 98 l-4 -43 -92 -3 -93 -3 3 -27 c3 -25 6 -27 51 -27 l47 0 0 -42 0 -43
-50 0 c-47 0 -50 -2 -50 -25 0 -25 1 -25 90 -25 l90 0 0 -40 0 -40 -166 0
-166 0 7 150 8 149 -32 18 c-77 43 -78 42 147 43 l213 0 -3 -42z m392 24 c60
-23 92 -71 88 -131 -4 -64 -36 -85 -139 -90 l-79 -3 0 -59 0 -59 -70 0 -70 0
0 150 0 151 -31 17 c-74 41 -73 41 96 41 127 0 169 -4 205 -17z m342 -119 l3
-138 93 -3 92 -3 0 -39 0 -40 -165 0 -165 0 0 149 0 149 -52 31 -53 31 122 0
122 0 3 -137z m538 87 c10 -25 43 -105 73 -177 l55 -133 -78 0 c-69 0 -78 2
-83 20 -4 17 -14 20 -57 20 -43 0 -53 -3 -57 -20 -5 -18 -14 -20 -84 -20 l-78
0 16 53 c63 208 71 242 60 250 -7 4 -30 19 -52 32 l-40 25 154 -3 153 -2 18
-45z m262 15 c13 -19 26 -35 29 -35 3 0 13 16 22 35 l17 35 70 0 c38 0 70 -2
70 -5 0 -3 -21 -47 -46 -97 l-46 -92 7 -83 7 -83 -76 0 -76 0 0 80 0 81 -58
87 c-32 48 -62 93 -66 100 -5 9 9 12 58 12 64 0 66 -1 88 -35z m-2052 -432 c0
-9 17 -13 48 -13 l47 -1 -35 -28 c-33 -28 -34 -30 -22 -67 6 -21 10 -40 7 -42
-2 -2 -19 7 -37 21 l-34 26 -32 -26 c-18 -14 -35 -23 -37 -21 -2 2 1 21 7 42
12 37 11 39 -22 67 l-35 28 46 1 c45 0 46 1 59 43 l13 42 13 -30 c7 -16 13
-36 14 -42z m1126 30 c9 -37 11 -38 59 -43 l50 -5 -37 -23 c-42 -26 -42 -26
-27 -71 6 -18 9 -34 7 -36 -2 -3 -19 6 -38 20 l-33 24 -32 -24 c-17 -14 -35
-25 -38 -25 -3 0 0 19 9 41 13 39 13 43 -3 55 -62 44 -62 43 -11 44 46 0 47 1
59 40 7 22 15 40 19 40 3 0 11 -17 16 -37z m-539 -94 c6 -6 33 -10 62 -8 28 2
51 2 51 -1 0 -3 -21 -18 -45 -35 -50 -34 -51 -36 -30 -95 22 -61 19 -65 -22
-33 -60 47 -60 47 -113 8 -28 -20 -50 -35 -50 -32 0 2 9 29 19 60 l20 56 -50
36 c-27 20 -49 37 -49 38 0 1 28 2 62 2 l61 0 14 45 c8 25 17 52 20 60 4 9 12
-6 22 -37 9 -29 22 -58 28 -64z m1353 83 c-8 -3 -322 -108 -697 -233 l-682
-227 -473 154 c-260 85 -546 177 -635 206 -90 28 -161 53 -159 56 3 2 28 -3
58 -12 55 -15 661 -175 1010 -266 l197 -51 603 165 c332 91 639 176 683 190
74 22 134 34 95 18z"/>
<path d="M2492 3720 c0 -14 2 -19 5 -12 2 6 2 18 0 25 -3 6 -5 1 -5 -13z"/>
<path d="M2511 3724 c0 -11 3 -14 6 -6 3 7 2 16 -1 19 -3 4 -6 -2 -5 -13z"/>
<path d="M2491 3604 c0 -11 3 -14 6 -6 3 7 2 16 -1 19 -3 4 -6 -2 -5 -13z"/>
<path d="M2511 3604 c0 -11 3 -14 6 -6 3 7 2 16 -1 19 -3 4 -6 -2 -5 -13z"/>
<path d="M2491 2674 c0 -11 3 -14 6 -6 3 7 2 16 -1 19 -3 4 -6 -2 -5 -13z"/>
<path d="M2491 2614 c0 -11 3 -14 6 -6 3 7 2 16 -1 19 -3 4 -6 -2 -5 -13z"/>
<path d="M3893 2550 c0 -30 2 -43 4 -27 2 15 2 39 0 55 -2 15 -4 2 -4 -28z"/>
<path d="M1721 2304 c0 -11 3 -14 6 -6 3 7 2 16 -1 19 -3 4 -6 -2 -5 -13z"/>
<path d="M1102 2205 c0 -16 2 -22 5 -12 2 9 2 23 0 30 -3 6 -5 -1 -5 -18z"/>
<path d="M2030 2000 c-17 -11 -28 -122 -29 -316 -1 -81 3 -124 11 -132 16 -16
63 -15 76 1 5 6 13 104 17 218 7 185 6 207 -9 222 -19 19 -43 22 -66 7z"/>
<path d="M697 1943 c-4 -32 -10 -94 -13 -137 l-7 -79 47 34 c26 18 52 41 57
51 13 25 11 162 -3 176 -7 7 -26 12 -44 12 -31 0 -32 -1 -37 -57z"/>
<path d="M1137 1982 c-12 -13 -18 -48 -23 -125 l-7 -107 56 0 56 0 5 53 c3 28
7 85 10 125 l5 72 -43 0 c-28 0 -48 -6 -59 -18z"/>
<path d="M2450 1864 c0 -152 -5 -147 68 -80 31 29 32 33 32 106 0 88 -14 110
-68 110 l-32 0 0 -136z"/>
<path d="M2896 1984 c-14 -13 -16 -34 -14 -123 l3 -106 58 -3 58 -3 -3 123 -3
123 -41 3 c-29 2 -47 -2 -58 -14z"/>
<path d="M1457 1306 c-9 -10 -17 -49 -22 -112 -6 -88 -5 -99 11 -111 10 -7 25
-13 35 -13 32 0 43 30 49 127 4 78 2 97 -11 109 -20 18 -44 18 -62 0z"/>
<path d="M978 1260 c-5 -36 -2 -40 31 -40 37 0 53 14 49 41 -2 20 -10 25 -39
27 -34 3 -37 1 -41 -28z"/>
<path d="M2776 1265 c-8 -33 -1 -45 29 -45 35 0 55 10 55 29 0 25 -20 41 -51
41 -20 0 -28 -6 -33 -25z"/>
<path d="M3660 1183 c-7 -32 -15 -63 -17 -70 -4 -9 8 -13 42 -13 34 0 46 4 42
13 -2 6 -13 38 -23 70 -10 31 -21 57 -25 57 -4 0 -13 -26 -19 -57z"/>
<path d="M697 3575 c-8 -20 -4 -29 11 -24 5 2 6 13 2 23 -6 19 -7 19 -13 1z"/>
<path d="M591 3333 c-14 -28 -61 -182 -61 -201 1 -9 7 -2 15 16 8 18 23 46 34
61 20 28 51 105 51 129 0 18 -28 15 -39 -5z"/>
<path d="M632 3305 c-17 -36 -15 -41 8 -20 11 10 17 22 14 26 -3 5 2 6 10 3 9
-3 16 -1 16 5 0 22 -37 11 -48 -14z"/>
<path d="M1170 3301 c0 -5 5 -13 10 -16 6 -3 10 -2 10 4 0 5 -4 13 -10 16 -5
3 -10 2 -10 -4z"/>
<path d="M1693 2945 c0 -27 2 -38 4 -22 2 15 2 37 0 50 -2 12 -4 0 -4 -28z"/>
<path d="M1643 2935 c0 -27 2 -38 4 -22 2 15 2 37 0 50 -2 12 -4 0 -4 -28z"/>
<path d="M4222 2955 c0 -16 2 -22 5 -12 2 9 2 23 0 30 -3 6 -5 -1 -5 -18z"/>
<path d="M3893 2870 c0 -36 2 -50 4 -32 2 17 2 47 0 65 -2 17 -4 3 -4 -33z"/>
<path d="M4262 2880 c0 -14 2 -19 5 -12 2 6 2 18 0 25 -3 6 -5 1 -5 -13z"/>
<path d="M4221 2864 c0 -11 3 -14 6 -6 3 7 2 16 -1 19 -3 4 -6 -2 -5 -13z"/>
<path d="M1693 2795 c0 -38 2 -53 4 -32 2 20 2 52 0 70 -2 17 -4 1 -4 -38z"/>
<path d="M4382 2820 c0 -19 2 -27 5 -17 2 9 2 25 0 35 -3 9 -5 1 -5 -18z"/>
<path d="M1077 2829 c7 -7 15 -10 18 -7 3 3 -2 9 -12 12 -14 6 -15 5 -6 -5z"/>
<path d="M1643 2805 c0 -22 2 -30 4 -17 2 12 2 30 0 40 -3 9 -5 -1 -4 -23z"/>
<path d="M1110 2806 c0 -2 7 -7 16 -10 8 -3 12 -2 9 4 -6 10 -25 14 -25 6z"/>
<path d="M1074 2682 c2 -23 21 -42 41 -42 6 1 2 5 -7 11 -11 6 -15 16 -11 26
4 10 2 14 -4 10 -6 -4 -14 -1 -17 5 -2 7 -4 3 -2 -10z"/>
<path d="M3580 2692 c0 -6 -12 -13 -26 -16 -15 -4 -24 -9 -21 -12 2 -3 20 1
38 9 22 8 29 16 21 21 -7 4 -12 3 -12 -2z"/>
<path d="M1643 2620 c0 -25 2 -35 4 -22 2 12 2 32 0 45 -2 12 -4 2 -4 -23z"/>
<path d="M3522 2625 c0 -16 2 -22 5 -12 2 9 2 23 0 30 -3 6 -5 -1 -5 -18z"/>
<path d="M1660 2570 c0 -5 5 -10 11 -10 5 0 7 5 4 10 -3 6 -8 10 -11 10 -2 0
-4 -4 -4 -10z"/>
<path d="M3428 2543 c7 -3 16 -2 19 1 4 3 -2 6 -13 5 -11 0 -14 -3 -6 -6z"/>
<path d="M1553 2470 c0 -36 2 -50 4 -32 2 17 2 47 0 65 -2 17 -4 3 -4 -33z"/>
<path d="M1070 2503 c0 -25 35 -50 45 -33 3 5 1 10 -4 10 -6 0 -10 3 -8 8 1 4
-2 8 -7 9 -5 1 -13 7 -17 15 -6 9 -9 7 -9 -9z"/>
<path d="M4223 2465 c0 -22 2 -30 4 -17 2 12 2 30 0 40 -3 9 -5 -1 -4 -23z"/>
<path d="M1450 2460 c8 -5 20 -10 25 -10 6 0 3 5 -5 10 -8 5 -19 10 -25 10 -5
0 -3 -5 5 -10z"/>
<path d="M4241 2414 c0 -11 3 -14 6 -6 3 7 2 16 -1 19 -3 4 -6 -2 -5 -13z"/>
<path d="M3383 2406 c0 -14 55 -31 65 -21 3 3 -3 5 -14 6 -18 0 -18 1 1 10 19
9 18 9 -2 5 -13 -2 -26 0 -29 5 -8 14 -21 11 -21 -5z"/>
<path d="M1385 2399 c4 -5 10 -7 15 -4 4 3 10 -1 13 -7 2 -7 8 -10 12 -5 11 9
3 17 -24 22 -12 2 -19 0 -16 -6z"/>
<path d="M3602 2325 c0 -16 2 -22 5 -12 2 9 2 23 0 30 -3 6 -5 -1 -5 -18z"/>
</g>
</svg>
